<?xml version="1.0" encoding="UTF-8" standalone="no"?>
<!DOCTYPE svg PUBLIC "-//W3C//DTD SVG 1.1//EN"
 "http://www.w3.org/Graphics/SVG/1.1/DTD/svg11.dtd">
<!-- Generated by graphviz version 2.50.0 (0)
 -->
<!-- Title: snakemake_dag Pages: 1 -->
<svg width="1822pt" height="1772pt"
 viewBox="0.00 0.00 1822.00 1772.00" xmlns="http://www.w3.org/2000/svg" xmlns:xlink="http://www.w3.org/1999/xlink">
<g id="graph0" class="graph" transform="scale(1 1) rotate(0) translate(4 1768)">
<title>snakemake_dag</title>
<polygon fill="white" stroke="transparent" points="-4,4 -4,-1768 1818,-1768 1818,4 -4,4"/>
<!-- 0 -->
<g id="node1" class="node">
<title>0</title>
<path fill="none" stroke="#56d8d8" stroke-width="2" stroke-dasharray="5,2" d="M84,-1764C84,-1764 12,-1764 12,-1764 6,-1764 0,-1758 0,-1752 0,-1752 0,-1740 0,-1740 0,-1734 6,-1728 12,-1728 12,-1728 84,-1728 84,-1728 90,-1728 96,-1734 96,-1740 96,-1740 96,-1752 96,-1752 96,-1758 90,-1764 84,-1764"/>
<text text-anchor="middle" x="48" y="-1743.5" font-family="sans" font-size="10.00">nuccore_queries</text>
</g>
<!-- 4 -->
<g id="node5" class="node">
<title>4</title>
<path fill="none" stroke="#567bd8" stroke-width="2" stroke-dasharray="5,2" d="M771.5,-1692C771.5,-1692 720.5,-1692 720.5,-1692 714.5,-1692 708.5,-1686 708.5,-1680 708.5,-1680 708.5,-1668 708.5,-1668 708.5,-1662 714.5,-1656 720.5,-1656 720.5,-1656 771.5,-1656 771.5,-1656 777.5,-1656 783.5,-1662 783.5,-1668 783.5,-1668 783.5,-1680 783.5,-1680 783.5,-1686 777.5,-1692 771.5,-1692"/>
<text text-anchor="middle" x="746" y="-1677" font-family="sans" font-size="10.00">nuccore_api</text>
<text text-anchor="middle" x="746" y="-1666" font-family="sans" font-size="10.00">batch: 0</text>
</g>
<!-- 0&#45;&gt;4 -->
<g id="edge4" class="edge">
<title>0&#45;&gt;4</title>
<path fill="none" stroke="grey" stroke-width="2" d="M96.25,-1740.16C224.11,-1727.34 570.57,-1692.59 698.07,-1679.81"/>
<polygon fill="grey" stroke="grey" stroke-width="2" points="698.69,-1683.26 708.29,-1678.78 697.99,-1676.3 698.69,-1683.26"/>
</g>
<!-- 64 -->
<g id="node65" class="node">
<title>64</title>
<path fill="none" stroke="#5692d8" stroke-width="2" d="M969,-36C969,-36 939,-36 939,-36 933,-36 927,-30 927,-24 927,-24 927,-12 927,-12 927,-6 933,0 939,0 939,0 969,0 969,0 975,0 981,-6 981,-12 981,-12 981,-24 981,-24 981,-30 975,-36 969,-36"/>
<text text-anchor="middle" x="954" y="-15.5" font-family="sans" font-size="10.00">all</text>
</g>
<!-- 0&#45;&gt;64 -->
<g id="edge72" class="edge">
<title>0&#45;&gt;64</title>
<path fill="none" stroke="grey" stroke-width="2" d="M41.32,-1727.81C31.68,-1701.4 15,-1649.06 15,-1603 15,-1603 15,-1603 15,-161 15,-89.51 81.27,-94.9 149,-72 293.99,-22.98 778.15,-19.03 916.68,-18.92"/>
<polygon fill="grey" stroke="grey" stroke-width="2" points="916.79,-22.42 926.79,-18.92 916.79,-15.42 916.79,-22.42"/>
</g>
<!-- 1 -->
<g id="node2" class="node">
<title>1</title>
<path fill="none" stroke="#d88556" stroke-width="2" stroke-dasharray="5,2" d="M1723.5,-1476C1723.5,-1476 1638.5,-1476 1638.5,-1476 1632.5,-1476 1626.5,-1470 1626.5,-1464 1626.5,-1464 1626.5,-1452 1626.5,-1452 1626.5,-1446 1632.5,-1440 1638.5,-1440 1638.5,-1440 1723.5,-1440 1723.5,-1440 1729.5,-1440 1735.5,-1446 1735.5,-1452 1735.5,-1452 1735.5,-1464 1735.5,-1464 1735.5,-1470 1729.5,-1476 1723.5,-1476"/>
<text text-anchor="middle" x="1681" y="-1455.5" font-family="sans" font-size="10.00">biosample_queries</text>
</g>
<!-- 7 -->
<g id="node8" class="node">
<title>7</title>
<path fill="none" stroke="#9fd856" stroke-width="2" stroke-dasharray="5,2" d="M1713,-1404C1713,-1404 1649,-1404 1649,-1404 1643,-1404 1637,-1398 1637,-1392 1637,-1392 1637,-1380 1637,-1380 1637,-1374 1643,-1368 1649,-1368 1649,-1368 1713,-1368 1713,-1368 1719,-1368 1725,-1374 1725,-1380 1725,-1380 1725,-1392 1725,-1392 1725,-1398 1719,-1404 1713,-1404"/>
<text text-anchor="middle" x="1681" y="-1389" font-family="sans" font-size="10.00">biosample_api</text>
<text text-anchor="middle" x="1681" y="-1378" font-family="sans" font-size="10.00">batch: 0</text>
</g>
<!-- 1&#45;&gt;7 -->
<g id="edge7" class="edge">
<title>1&#45;&gt;7</title>
<path fill="none" stroke="grey" stroke-width="2" d="M1681,-1439.7C1681,-1431.98 1681,-1422.71 1681,-1414.11"/>
<polygon fill="grey" stroke="grey" stroke-width="2" points="1684.5,-1414.1 1681,-1404.1 1677.5,-1414.1 1684.5,-1414.1"/>
</g>
<!-- 1&#45;&gt;64 -->
<g id="edge73" class="edge">
<title>1&#45;&gt;64</title>
<path fill="none" stroke="grey" stroke-width="2" d="M1714.56,-1439.93C1753.96,-1417.23 1814,-1373.1 1814,-1315 1814,-1315 1814,-1315 1814,-161 1814,-114.5 1798.85,-95.97 1759,-72 1692.7,-32.12 1141.2,-21.6 991.42,-19.47"/>
<polygon fill="grey" stroke="grey" stroke-width="2" points="991.38,-15.97 981.34,-19.33 991.29,-22.96 991.38,-15.97"/>
</g>
<!-- 2 -->
<g id="node3" class="node">
<title>2</title>
<path fill="none" stroke="#d8bc56" stroke-width="2" stroke-dasharray="5,2" d="M1449,-1548C1449,-1548 1395,-1548 1395,-1548 1389,-1548 1383,-1542 1383,-1536 1383,-1536 1383,-1524 1383,-1524 1383,-1518 1389,-1512 1395,-1512 1395,-1512 1449,-1512 1449,-1512 1455,-1512 1461,-1518 1461,-1524 1461,-1524 1461,-1536 1461,-1536 1461,-1542 1455,-1548 1449,-1548"/>
<text text-anchor="middle" x="1422" y="-1527.5" font-family="sans" font-size="10.00">nuccore_join</text>
</g>
<!-- 2&#45;&gt;1 -->
<g id="edge1" class="edge">
<title>2&#45;&gt;1</title>
<path fill="none" stroke="grey" stroke-width="2" d="M1461.06,-1518.44C1502.17,-1507.33 1567.59,-1489.65 1616.4,-1476.46"/>
<polygon fill="grey" stroke="grey" stroke-width="2" points="1617.5,-1479.79 1626.24,-1473.8 1615.68,-1473.03 1617.5,-1479.79"/>
</g>
<!-- 8 -->
<g id="node9" class="node">
<title>8</title>
<path fill="none" stroke="#56a9d8" stroke-width="2" stroke-dasharray="5,2" d="M1525.5,-1188C1525.5,-1188 1482.5,-1188 1482.5,-1188 1476.5,-1188 1470.5,-1182 1470.5,-1176 1470.5,-1176 1470.5,-1164 1470.5,-1164 1470.5,-1158 1476.5,-1152 1482.5,-1152 1482.5,-1152 1525.5,-1152 1525.5,-1152 1531.5,-1152 1537.5,-1158 1537.5,-1164 1537.5,-1164 1537.5,-1176 1537.5,-1176 1537.5,-1182 1531.5,-1188 1525.5,-1188"/>
<text text-anchor="middle" x="1504" y="-1167.5" font-family="sans" font-size="10.00">join_NABT</text>
</g>
<!-- 2&#45;&gt;8 -->
<g id="edge8" class="edge">
<title>2&#45;&gt;8</title>
<path fill="none" stroke="grey" stroke-width="2" d="M1422,-1511.95C1422,-1485.29 1422,-1432.11 1422,-1387 1422,-1387 1422,-1387 1422,-1313 1422,-1266.88 1454.84,-1222.26 1478.96,-1195.72"/>
<polygon fill="grey" stroke="grey" stroke-width="2" points="1481.52,-1198.1 1485.8,-1188.4 1476.41,-1193.31 1481.52,-1198.1"/>
</g>
<!-- 10 -->
<g id="node11" class="node">
<title>10</title>
<path fill="none" stroke="#56d87b" stroke-width="2" stroke-dasharray="5,2" d="M1522,-1332C1522,-1332 1462,-1332 1462,-1332 1456,-1332 1450,-1326 1450,-1320 1450,-1320 1450,-1308 1450,-1308 1450,-1302 1456,-1296 1462,-1296 1462,-1296 1522,-1296 1522,-1296 1528,-1296 1534,-1302 1534,-1308 1534,-1308 1534,-1320 1534,-1320 1534,-1326 1528,-1332 1522,-1332"/>
<text text-anchor="middle" x="1492" y="-1311.5" font-family="sans" font-size="10.00">assembly_api</text>
</g>
<!-- 2&#45;&gt;10 -->
<g id="edge15" class="edge">
<title>2&#45;&gt;10</title>
<path fill="none" stroke="grey" stroke-width="2" d="M1427.61,-1511.85C1439.77,-1474.68 1468.63,-1386.44 1483.23,-1341.82"/>
<polygon fill="grey" stroke="grey" stroke-width="2" points="1486.58,-1342.83 1486.36,-1332.23 1479.93,-1340.65 1486.58,-1342.83"/>
</g>
<!-- 11 -->
<g id="node12" class="node">
<title>11</title>
<path fill="none" stroke="#a7d856" stroke-width="2" stroke-dasharray="5,2" d="M1382,-1404C1382,-1404 1352,-1404 1352,-1404 1346,-1404 1340,-1398 1340,-1392 1340,-1392 1340,-1380 1340,-1380 1340,-1374 1346,-1368 1352,-1368 1352,-1368 1382,-1368 1382,-1368 1388,-1368 1394,-1374 1394,-1380 1394,-1380 1394,-1392 1394,-1392 1394,-1398 1388,-1404 1382,-1404"/>
<text text-anchor="middle" x="1367" y="-1383.5" font-family="sans" font-size="10.00">taxid</text>
</g>
<!-- 2&#45;&gt;11 -->
<g id="edge16" class="edge">
<title>2&#45;&gt;11</title>
<path fill="none" stroke="grey" stroke-width="2" d="M1415.37,-1511.87C1405.91,-1487.46 1388.47,-1442.43 1377.32,-1413.64"/>
<polygon fill="grey" stroke="grey" stroke-width="2" points="1380.53,-1412.25 1373.66,-1404.19 1374.01,-1414.78 1380.53,-1412.25"/>
</g>
<!-- 3 -->
<g id="node4" class="node">
<title>3</title>
<path fill="none" stroke="#56d892" stroke-width="2" stroke-dasharray="5,2" d="M1128,-1620C1128,-1620 1042,-1620 1042,-1620 1036,-1620 1030,-1614 1030,-1608 1030,-1608 1030,-1596 1030,-1596 1030,-1590 1036,-1584 1042,-1584 1042,-1584 1128,-1584 1128,-1584 1134,-1584 1140,-1590 1140,-1596 1140,-1596 1140,-1608 1140,-1608 1140,-1614 1134,-1620 1128,-1620"/>
<text text-anchor="middle" x="1085" y="-1599.5" font-family="sans" font-size="10.00">nuccore_extraction</text>
</g>
<!-- 3&#45;&gt;2 -->
<g id="edge2" class="edge">
<title>3&#45;&gt;2</title>
<path fill="none" stroke="grey" stroke-width="2" d="M1140.27,-1589.52C1204.83,-1576.11 1310.67,-1554.12 1372.6,-1541.26"/>
<polygon fill="grey" stroke="grey" stroke-width="2" points="1373.44,-1544.66 1382.52,-1539.2 1372.02,-1537.81 1373.44,-1544.66"/>
</g>
<!-- 4&#45;&gt;3 -->
<g id="edge3" class="edge">
<title>4&#45;&gt;3</title>
<path fill="none" stroke="grey" stroke-width="2" d="M783.57,-1665.24C840.59,-1653.47 949.72,-1630.93 1019.85,-1616.45"/>
<polygon fill="grey" stroke="grey" stroke-width="2" points="1020.81,-1619.83 1029.9,-1614.38 1019.4,-1612.97 1020.81,-1619.83"/>
</g>
<!-- 5 -->
<g id="node6" class="node">
<title>5</title>
<path fill="none" stroke="#d8c356" stroke-width="2" stroke-dasharray="5,2" d="M1774,-1260C1774,-1260 1676,-1260 1676,-1260 1670,-1260 1664,-1254 1664,-1248 1664,-1248 1664,-1236 1664,-1236 1664,-1230 1670,-1224 1676,-1224 1676,-1224 1774,-1224 1774,-1224 1780,-1224 1786,-1230 1786,-1236 1786,-1236 1786,-1248 1786,-1248 1786,-1254 1780,-1260 1774,-1260"/>
<text text-anchor="middle" x="1725" y="-1239.5" font-family="sans" font-size="10.00">biosample_extraction</text>
</g>
<!-- 5&#45;&gt;8 -->
<g id="edge11" class="edge">
<title>5&#45;&gt;8</title>
<path fill="none" stroke="grey" stroke-width="2" d="M1671.22,-1223.97C1633.15,-1211.91 1582.75,-1195.94 1547.27,-1184.71"/>
<polygon fill="grey" stroke="grey" stroke-width="2" points="1548.27,-1181.35 1537.68,-1181.67 1546.16,-1188.02 1548.27,-1181.35"/>
</g>
<!-- 5&#45;&gt;64 -->
<g id="edge74" class="edge">
<title>5&#45;&gt;64</title>
<path fill="none" stroke="grey" stroke-width="2" d="M1735.57,-1223.79C1750.51,-1197.77 1776,-1146.41 1776,-1099 1776,-1099 1776,-1099 1776,-161 1776,-115.63 1764.35,-96.24 1726,-72 1663.48,-32.47 1137.15,-21.73 991.33,-19.5"/>
<polygon fill="grey" stroke="grey" stroke-width="2" points="991.16,-16 981.11,-19.35 991.05,-23 991.16,-16"/>
</g>
<!-- 6 -->
<g id="node7" class="node">
<title>6</title>
<path fill="none" stroke="#d87d56" stroke-width="2" stroke-dasharray="5,2" d="M1714.5,-1332C1714.5,-1332 1647.5,-1332 1647.5,-1332 1641.5,-1332 1635.5,-1326 1635.5,-1320 1635.5,-1320 1635.5,-1308 1635.5,-1308 1635.5,-1302 1641.5,-1296 1647.5,-1296 1647.5,-1296 1714.5,-1296 1714.5,-1296 1720.5,-1296 1726.5,-1302 1726.5,-1308 1726.5,-1308 1726.5,-1320 1726.5,-1320 1726.5,-1326 1720.5,-1332 1714.5,-1332"/>
<text text-anchor="middle" x="1681" y="-1311.5" font-family="sans" font-size="10.00">biosample_join</text>
</g>
<!-- 6&#45;&gt;5 -->
<g id="edge5" class="edge">
<title>6&#45;&gt;5</title>
<path fill="none" stroke="grey" stroke-width="2" d="M1691.88,-1295.7C1696.99,-1287.56 1703.2,-1277.69 1708.84,-1268.7"/>
<polygon fill="grey" stroke="grey" stroke-width="2" points="1711.89,-1270.43 1714.25,-1260.1 1705.96,-1266.71 1711.89,-1270.43"/>
</g>
<!-- 6&#45;&gt;8 -->
<g id="edge12" class="edge">
<title>6&#45;&gt;8</title>
<path fill="none" stroke="grey" stroke-width="2" d="M1672.23,-1295.92C1661.47,-1276.37 1641.6,-1244.43 1617,-1224 1596.52,-1207 1569.68,-1194.11 1547.3,-1185.3"/>
<polygon fill="grey" stroke="grey" stroke-width="2" points="1548.28,-1181.93 1537.69,-1181.66 1545.8,-1188.48 1548.28,-1181.93"/>
</g>
<!-- 7&#45;&gt;6 -->
<g id="edge6" class="edge">
<title>7&#45;&gt;6</title>
<path fill="none" stroke="grey" stroke-width="2" d="M1681,-1367.7C1681,-1359.98 1681,-1350.71 1681,-1342.11"/>
<polygon fill="grey" stroke="grey" stroke-width="2" points="1684.5,-1342.1 1681,-1332.1 1677.5,-1342.1 1684.5,-1342.1"/>
</g>
<!-- 63 -->
<g id="node64" class="node">
<title>63</title>
<path fill="none" stroke="#56b9d8" stroke-width="2" stroke-dasharray="5,2" d="M327,-1116C327,-1116 259,-1116 259,-1116 253,-1116 247,-1110 247,-1104 247,-1104 247,-1092 247,-1092 247,-1086 253,-1080 259,-1080 259,-1080 327,-1080 327,-1080 333,-1080 339,-1086 339,-1092 339,-1092 339,-1104 339,-1104 339,-1110 333,-1116 327,-1116"/>
<text text-anchor="middle" x="293" y="-1095.5" font-family="sans" font-size="10.00">filter_metadata</text>
</g>
<!-- 8&#45;&gt;63 -->
<g id="edge71" class="edge">
<title>8&#45;&gt;63</title>
<path fill="none" stroke="grey" stroke-width="2" d="M1470.35,-1167.05C1303.08,-1157.39 560.85,-1114.48 349.39,-1102.26"/>
<polygon fill="grey" stroke="grey" stroke-width="2" points="349.33,-1098.75 339.14,-1101.67 348.92,-1105.74 349.33,-1098.75"/>
</g>
<!-- 8&#45;&gt;64 -->
<g id="edge75" class="edge">
<title>8&#45;&gt;64</title>
<path fill="none" stroke="grey" stroke-width="2" d="M1537.53,-1164.44C1602.23,-1153.55 1738,-1119.66 1738,-1027 1738,-1027 1738,-1027 1738,-161 1738,-117.07 1731.35,-96.66 1695,-72 1636.49,-32.31 1134.51,-21.73 991.74,-19.51"/>
<polygon fill="grey" stroke="grey" stroke-width="2" points="991.38,-16 981.32,-19.35 991.27,-23 991.38,-16"/>
</g>
<!-- 9 -->
<g id="node10" class="node">
<title>9</title>
<path fill="none" stroke="#88d856" stroke-width="2" stroke-dasharray="5,2" d="M1595.5,-1260C1595.5,-1260 1500.5,-1260 1500.5,-1260 1494.5,-1260 1488.5,-1254 1488.5,-1248 1488.5,-1248 1488.5,-1236 1488.5,-1236 1488.5,-1230 1494.5,-1224 1500.5,-1224 1500.5,-1224 1595.5,-1224 1595.5,-1224 1601.5,-1224 1607.5,-1230 1607.5,-1236 1607.5,-1236 1607.5,-1248 1607.5,-1248 1607.5,-1254 1601.5,-1260 1595.5,-1260"/>
<text text-anchor="middle" x="1548" y="-1239.5" font-family="sans" font-size="10.00">assembly_extraction</text>
</g>
<!-- 9&#45;&gt;8 -->
<g id="edge9" class="edge">
<title>9&#45;&gt;8</title>
<path fill="none" stroke="grey" stroke-width="2" d="M1537.12,-1223.7C1532.01,-1215.56 1525.8,-1205.69 1520.16,-1196.7"/>
<polygon fill="grey" stroke="grey" stroke-width="2" points="1523.04,-1194.71 1514.75,-1188.1 1517.11,-1198.43 1523.04,-1194.71"/>
</g>
<!-- 10&#45;&gt;8 -->
<g id="edge10" class="edge">
<title>10&#45;&gt;8</title>
<path fill="none" stroke="grey" stroke-width="2" d="M1486.18,-1295.8C1480.89,-1277.77 1474.67,-1248.69 1480,-1224 1481.96,-1214.92 1485.61,-1205.52 1489.49,-1197.2"/>
<polygon fill="grey" stroke="grey" stroke-width="2" points="1492.73,-1198.53 1494.05,-1188.02 1486.46,-1195.42 1492.73,-1198.53"/>
</g>
<!-- 10&#45;&gt;9 -->
<g id="edge14" class="edge">
<title>10&#45;&gt;9</title>
<path fill="none" stroke="grey" stroke-width="2" d="M1505.84,-1295.7C1512.49,-1287.39 1520.58,-1277.28 1527.89,-1268.14"/>
<polygon fill="grey" stroke="grey" stroke-width="2" points="1530.8,-1270.1 1534.32,-1260.1 1525.34,-1265.73 1530.8,-1270.1"/>
</g>
<!-- 11&#45;&gt;8 -->
<g id="edge13" class="edge">
<title>11&#45;&gt;8</title>
<path fill="none" stroke="grey" stroke-width="2" d="M1367.06,-1367.81C1368.04,-1336.12 1374.23,-1267.71 1408,-1224 1421.44,-1206.6 1442.29,-1194.11 1461.13,-1185.65"/>
<polygon fill="grey" stroke="grey" stroke-width="2" points="1462.62,-1188.82 1470.47,-1181.7 1459.89,-1182.37 1462.62,-1188.82"/>
</g>
<!-- 12 -->
<g id="node13" class="node">
<title>12</title>
<path fill="none" stroke="#56d863" stroke-width="2" stroke-dasharray="5,2" d="M418.5,-396C418.5,-396 331.5,-396 331.5,-396 325.5,-396 319.5,-390 319.5,-384 319.5,-384 319.5,-372 319.5,-372 319.5,-366 325.5,-360 331.5,-360 331.5,-360 418.5,-360 418.5,-360 424.5,-360 430.5,-366 430.5,-372 430.5,-372 430.5,-384 430.5,-384 430.5,-390 424.5,-396 418.5,-396"/>
<text text-anchor="middle" x="375" y="-375.5" font-family="sans" font-size="10.00">nuccorechr_queries</text>
</g>
<!-- 16 -->
<g id="node17" class="node">
<title>16</title>
<path fill="none" stroke="#56a9d8" stroke-width="2" stroke-dasharray="5,2" d="M417,-324C417,-324 351,-324 351,-324 345,-324 339,-318 339,-312 339,-312 339,-300 339,-300 339,-294 345,-288 351,-288 351,-288 417,-288 417,-288 423,-288 429,-294 429,-300 429,-300 429,-312 429,-312 429,-318 423,-324 417,-324"/>
<text text-anchor="middle" x="384" y="-309" font-family="sans" font-size="10.00">nuccorechr_api</text>
<text text-anchor="middle" x="384" y="-298" font-family="sans" font-size="10.00">batch: 0</text>
</g>
<!-- 12&#45;&gt;16 -->
<g id="edge20" class="edge">
<title>12&#45;&gt;16</title>
<path fill="none" stroke="grey" stroke-width="2" d="M377.22,-359.7C378.22,-351.98 379.41,-342.71 380.51,-334.11"/>
<polygon fill="grey" stroke="grey" stroke-width="2" points="384,-334.47 381.8,-324.1 377.05,-333.58 384,-334.47"/>
</g>
<!-- 12&#45;&gt;64 -->
<g id="edge76" class="edge">
<title>12&#45;&gt;64</title>
<path fill="none" stroke="grey" stroke-width="2" d="M357.21,-359.71C348.02,-349.95 337.23,-337.1 330,-324 309.96,-287.7 302,-276.47 302,-235 302,-235 302,-235 302,-161 302,-120.36 292.22,-98.54 323,-72 368.05,-33.16 787.88,-22.11 916.64,-19.62"/>
<polygon fill="grey" stroke="grey" stroke-width="2" points="916.86,-23.12 926.79,-19.43 916.73,-16.12 916.86,-23.12"/>
</g>
<!-- 13 -->
<g id="node14" class="node">
<title>13</title>
<path fill="none" stroke="#bed856" stroke-width="2" stroke-dasharray="5,2" d="M443.5,-108C443.5,-108 344.5,-108 344.5,-108 338.5,-108 332.5,-102 332.5,-96 332.5,-96 332.5,-84 332.5,-84 332.5,-78 338.5,-72 344.5,-72 344.5,-72 443.5,-72 443.5,-72 449.5,-72 455.5,-78 455.5,-84 455.5,-84 455.5,-96 455.5,-96 455.5,-102 449.5,-108 443.5,-108"/>
<text text-anchor="middle" x="394" y="-87.5" font-family="sans" font-size="10.00">nuccorechr_fasta_join</text>
</g>
<!-- 13&#45;&gt;64 -->
<g id="edge77" class="edge">
<title>13&#45;&gt;64</title>
<path fill="none" stroke="grey" stroke-width="2" d="M455.69,-74.6C460.52,-73.66 465.33,-72.78 470,-72 635.4,-44.53 835.04,-27.81 916.58,-21.67"/>
<polygon fill="grey" stroke="grey" stroke-width="2" points="917.12,-25.14 926.83,-20.91 916.6,-18.16 917.12,-25.14"/>
</g>
<!-- 14 -->
<g id="node15" class="node">
<title>14</title>
<path fill="none" stroke="#569ad8" stroke-width="2" stroke-dasharray="5,2" d="M441,-180C441,-180 345,-180 345,-180 339,-180 333,-174 333,-168 333,-168 333,-156 333,-156 333,-150 339,-144 345,-144 345,-144 441,-144 441,-144 447,-144 453,-150 453,-156 453,-156 453,-168 453,-168 453,-174 447,-180 441,-180"/>
<text text-anchor="middle" x="393" y="-159.5" font-family="sans" font-size="10.00">nuccorechr_fasta_api</text>
</g>
<!-- 14&#45;&gt;13 -->
<g id="edge17" class="edge">
<title>14&#45;&gt;13</title>
<path fill="none" stroke="grey" stroke-width="2" d="M393.25,-143.7C393.36,-135.98 393.49,-126.71 393.61,-118.11"/>
<polygon fill="grey" stroke="grey" stroke-width="2" points="397.11,-118.15 393.76,-108.1 390.11,-118.05 397.11,-118.15"/>
</g>
<!-- 15 -->
<g id="node16" class="node">
<title>15</title>
<path fill="none" stroke="#59d856" stroke-width="2" stroke-dasharray="5,2" d="M443.5,-252C443.5,-252 342.5,-252 342.5,-252 336.5,-252 330.5,-246 330.5,-240 330.5,-240 330.5,-228 330.5,-228 330.5,-222 336.5,-216 342.5,-216 342.5,-216 443.5,-216 443.5,-216 449.5,-216 455.5,-222 455.5,-228 455.5,-228 455.5,-240 455.5,-240 455.5,-246 449.5,-252 443.5,-252"/>
<text text-anchor="middle" x="393" y="-231.5" font-family="sans" font-size="10.00">nuccorechr_extraction</text>
</g>
<!-- 15&#45;&gt;14 -->
<g id="edge18" class="edge">
<title>15&#45;&gt;14</title>
<path fill="none" stroke="grey" stroke-width="2" d="M393,-215.7C393,-207.98 393,-198.71 393,-190.11"/>
<polygon fill="grey" stroke="grey" stroke-width="2" points="396.5,-190.1 393,-180.1 389.5,-190.1 396.5,-190.1"/>
</g>
<!-- 16&#45;&gt;15 -->
<g id="edge19" class="edge">
<title>16&#45;&gt;15</title>
<path fill="none" stroke="grey" stroke-width="2" d="M386.22,-287.7C387.22,-279.98 388.41,-270.71 389.51,-262.11"/>
<polygon fill="grey" stroke="grey" stroke-width="2" points="393,-262.47 390.8,-252.1 386.05,-261.58 393,-262.47"/>
</g>
<!-- 17 -->
<g id="node18" class="node">
<title>17</title>
<path fill="none" stroke="#d8b456" stroke-width="2" d="M513.5,-756C513.5,-756 454.5,-756 454.5,-756 448.5,-756 442.5,-750 442.5,-744 442.5,-744 442.5,-732 442.5,-732 442.5,-726 448.5,-720 454.5,-720 454.5,-720 513.5,-720 513.5,-720 519.5,-720 525.5,-726 525.5,-732 525.5,-732 525.5,-744 525.5,-744 525.5,-750 519.5,-756 513.5,-756"/>
<text text-anchor="middle" x="484" y="-735.5" font-family="sans" font-size="10.00">deduplication</text>
</g>
<!-- 23 -->
<g id="node24" class="node">
<title>23</title>
<path fill="none" stroke="#d85656" stroke-width="2" d="M1350.5,-684C1350.5,-684 1297.5,-684 1297.5,-684 1291.5,-684 1285.5,-678 1285.5,-672 1285.5,-672 1285.5,-660 1285.5,-660 1285.5,-654 1291.5,-648 1297.5,-648 1297.5,-648 1350.5,-648 1350.5,-648 1356.5,-648 1362.5,-654 1362.5,-660 1362.5,-660 1362.5,-672 1362.5,-672 1362.5,-678 1356.5,-684 1350.5,-684"/>
<text text-anchor="middle" x="1324" y="-663.5" font-family="sans" font-size="10.00">rmlst_blastn</text>
</g>
<!-- 17&#45;&gt;23 -->
<g id="edge28" class="edge">
<title>17&#45;&gt;23</title>
<path fill="none" stroke="grey" stroke-width="2" d="M525.66,-733.53C666.28,-721.81 1123.13,-683.74 1274.66,-671.11"/>
<polygon fill="grey" stroke="grey" stroke-width="2" points="1275.36,-674.57 1285.03,-670.25 1274.78,-667.59 1275.36,-674.57"/>
</g>
<!-- 17&#45;&gt;64 -->
<g id="edge78" class="edge">
<title>17&#45;&gt;64</title>
<path fill="none" stroke="grey" stroke-width="2" d="M484,-719.95C484,-693.29 484,-640.11 484,-595 484,-595 484,-595 484,-161 484,-116.27 494.2,-97.43 531,-72 593.15,-29.04 825.22,-20.89 916.64,-19.36"/>
<polygon fill="grey" stroke="grey" stroke-width="2" points="916.88,-22.85 926.82,-19.2 916.77,-15.85 916.88,-22.85"/>
</g>
<!-- 18 -->
<g id="node19" class="node">
<title>18</title>
<path fill="none" stroke="#5673d8" stroke-width="2" d="M436.5,-900C436.5,-900 395.5,-900 395.5,-900 389.5,-900 383.5,-894 383.5,-888 383.5,-888 383.5,-876 383.5,-876 383.5,-870 389.5,-864 395.5,-864 395.5,-864 436.5,-864 436.5,-864 442.5,-864 448.5,-870 448.5,-876 448.5,-876 448.5,-888 448.5,-888 448.5,-894 442.5,-900 436.5,-900"/>
<text text-anchor="middle" x="416" y="-879.5" font-family="sans" font-size="10.00">fasta_join</text>
</g>
<!-- 18&#45;&gt;17 -->
<g id="edge21" class="edge">
<title>18&#45;&gt;17</title>
<path fill="none" stroke="grey" stroke-width="2" d="M412.84,-863.92C410.25,-845.21 408.62,-814.84 420,-792 425.84,-780.28 435.58,-770.21 445.72,-762.09"/>
<polygon fill="grey" stroke="grey" stroke-width="2" points="447.95,-764.79 453.87,-756.01 443.76,-759.18 447.95,-764.79"/>
</g>
<!-- 21 -->
<g id="node22" class="node">
<title>21</title>
<path fill="none" stroke="#56d8d0" stroke-width="2" d="M523,-828C523,-828 441,-828 441,-828 435,-828 429,-822 429,-816 429,-816 429,-804 429,-804 429,-798 435,-792 441,-792 441,-792 523,-792 523,-792 529,-792 535,-798 535,-804 535,-804 535,-816 535,-816 535,-822 529,-828 523,-828"/>
<text text-anchor="middle" x="482" y="-807.5" font-family="sans" font-size="10.00">seqkit_rmdup_seq</text>
</g>
<!-- 18&#45;&gt;21 -->
<g id="edge27" class="edge">
<title>18&#45;&gt;21</title>
<path fill="none" stroke="grey" stroke-width="2" d="M432.31,-863.7C440.31,-855.22 450.07,-844.86 458.82,-835.58"/>
<polygon fill="grey" stroke="grey" stroke-width="2" points="461.56,-837.78 465.87,-828.1 456.47,-832.98 461.56,-837.78"/>
</g>
<!-- 19 -->
<g id="node20" class="node">
<title>19</title>
<path fill="none" stroke="#56d89a" stroke-width="2" d="M434,-972C434,-972 396,-972 396,-972 390,-972 384,-966 384,-960 384,-960 384,-948 384,-948 384,-942 390,-936 396,-936 396,-936 434,-936 434,-936 440,-936 446,-942 446,-948 446,-948 446,-960 446,-960 446,-966 440,-972 434,-972"/>
<text text-anchor="middle" x="415" y="-957" font-family="sans" font-size="10.00">fasta_api</text>
<text text-anchor="middle" x="415" y="-946" font-family="sans" font-size="10.00">batch: 0</text>
</g>
<!-- 19&#45;&gt;18 -->
<g id="edge24" class="edge">
<title>19&#45;&gt;18</title>
<path fill="none" stroke="grey" stroke-width="2" d="M415.25,-935.7C415.36,-927.98 415.49,-918.71 415.61,-910.11"/>
<polygon fill="grey" stroke="grey" stroke-width="2" points="419.11,-910.15 415.76,-900.1 412.11,-910.05 419.11,-910.15"/>
</g>
<!-- 20 -->
<g id="node21" class="node">
<title>20</title>
<path fill="none" stroke="#568ad8" stroke-width="2" stroke-dasharray="5,2" d="M411.5,-1044C411.5,-1044 352.5,-1044 352.5,-1044 346.5,-1044 340.5,-1038 340.5,-1032 340.5,-1032 340.5,-1020 340.5,-1020 340.5,-1014 346.5,-1008 352.5,-1008 352.5,-1008 411.5,-1008 411.5,-1008 417.5,-1008 423.5,-1014 423.5,-1020 423.5,-1020 423.5,-1032 423.5,-1032 423.5,-1038 417.5,-1044 411.5,-1044"/>
<text text-anchor="middle" x="382" y="-1023.5" font-family="sans" font-size="10.00">fasta_queries</text>
</g>
<!-- 20&#45;&gt;19 -->
<g id="edge25" class="edge">
<title>20&#45;&gt;19</title>
<path fill="none" stroke="grey" stroke-width="2" d="M390.16,-1007.7C393.91,-999.73 398.45,-990.1 402.62,-981.26"/>
<polygon fill="grey" stroke="grey" stroke-width="2" points="405.84,-982.64 406.94,-972.1 399.51,-979.66 405.84,-982.64"/>
</g>
<!-- 20&#45;&gt;64 -->
<g id="edge79" class="edge">
<title>20&#45;&gt;64</title>
<path fill="none" stroke="grey" stroke-width="2" d="M376.54,-1007.71C368.65,-981.18 355,-928.67 355,-883 355,-883 355,-883 355,-593 355,-428.83 264,-399.17 264,-235 264,-235 264,-235 264,-161 264,-118.66 264.12,-97.4 298,-72 347.63,-34.8 784.95,-22.58 916.64,-19.72"/>
<polygon fill="grey" stroke="grey" stroke-width="2" points="916.73,-23.22 926.65,-19.51 916.58,-16.22 916.73,-23.22"/>
</g>
<!-- 21&#45;&gt;17 -->
<g id="edge22" class="edge">
<title>21&#45;&gt;17</title>
<path fill="none" stroke="grey" stroke-width="2" d="M482.49,-791.7C482.71,-783.98 482.98,-774.71 483.23,-766.11"/>
<polygon fill="grey" stroke="grey" stroke-width="2" points="486.72,-766.2 483.51,-756.1 479.73,-766 486.72,-766.2"/>
</g>
<!-- 22 -->
<g id="node23" class="node">
<title>22</title>
<path fill="none" stroke="#d85e56" stroke-width="2" stroke-dasharray="5,2" d="M1403,-828C1403,-828 1365,-828 1365,-828 1359,-828 1353,-822 1353,-816 1353,-816 1353,-804 1353,-804 1353,-798 1359,-792 1365,-792 1365,-792 1403,-792 1403,-792 1409,-792 1415,-798 1415,-804 1415,-804 1415,-816 1415,-816 1415,-822 1409,-828 1403,-828"/>
<text text-anchor="middle" x="1384" y="-807.5" font-family="sans" font-size="10.00">rmlst_api</text>
</g>
<!-- 24 -->
<g id="node25" class="node">
<title>24</title>
<path fill="none" stroke="#8fd856" stroke-width="2" stroke-dasharray="5,2" d="M1397,-756C1397,-756 1319,-756 1319,-756 1313,-756 1307,-750 1307,-744 1307,-744 1307,-732 1307,-732 1307,-726 1313,-720 1319,-720 1319,-720 1397,-720 1397,-720 1403,-720 1409,-726 1409,-732 1409,-732 1409,-744 1409,-744 1409,-750 1403,-756 1397,-756"/>
<text text-anchor="middle" x="1358" y="-735.5" font-family="sans" font-size="10.00">rmlst_blastdb_ref</text>
</g>
<!-- 22&#45;&gt;24 -->
<g id="edge30" class="edge">
<title>22&#45;&gt;24</title>
<path fill="none" stroke="grey" stroke-width="2" d="M1377.57,-791.7C1374.64,-783.81 1371.11,-774.3 1367.86,-765.55"/>
<polygon fill="grey" stroke="grey" stroke-width="2" points="1371.12,-764.26 1364.35,-756.1 1364.55,-766.7 1371.12,-764.26"/>
</g>
<!-- 22&#45;&gt;64 -->
<g id="edge80" class="edge">
<title>22&#45;&gt;64</title>
<path fill="none" stroke="grey" stroke-width="2" d="M1415.16,-809.05C1494.89,-807.39 1700,-791.05 1700,-667 1700,-667 1700,-667 1700,-161 1700,-118.81 1700.71,-97.36 1667,-72 1612.74,-31.18 1130.39,-21.42 991.35,-19.45"/>
<polygon fill="grey" stroke="grey" stroke-width="2" points="991.25,-15.94 981.2,-19.31 991.15,-22.94 991.25,-15.94"/>
</g>
<!-- 25 -->
<g id="node26" class="node">
<title>25</title>
<path fill="none" stroke="#d86656" stroke-width="2" d="M1212.5,-612C1212.5,-612 1139.5,-612 1139.5,-612 1133.5,-612 1127.5,-606 1127.5,-600 1127.5,-600 1127.5,-588 1127.5,-588 1127.5,-582 1133.5,-576 1139.5,-576 1139.5,-576 1212.5,-576 1212.5,-576 1218.5,-576 1224.5,-582 1224.5,-588 1224.5,-588 1224.5,-600 1224.5,-600 1224.5,-606 1218.5,-612 1212.5,-612"/>
<text text-anchor="middle" x="1176" y="-591.5" font-family="sans" font-size="10.00">chr_putative_ids</text>
</g>
<!-- 23&#45;&gt;25 -->
<g id="edge31" class="edge">
<title>23&#45;&gt;25</title>
<path fill="none" stroke="grey" stroke-width="2" d="M1287.8,-647.88C1267.74,-638.39 1242.63,-626.51 1221.29,-616.42"/>
<polygon fill="grey" stroke="grey" stroke-width="2" points="1222.62,-613.18 1212.09,-612.07 1219.63,-619.51 1222.62,-613.18"/>
</g>
<!-- 23&#45;&gt;64 -->
<g id="edge81" class="edge">
<title>23&#45;&gt;64</title>
<path fill="none" stroke="grey" stroke-width="2" d="M1362.77,-665.87C1451.55,-665.65 1662,-651.57 1662,-523 1662,-523 1662,-523 1662,-161 1662,-120.55 1673.44,-98.63 1643,-72 1593.76,-28.94 1128.35,-20.78 991.61,-19.31"/>
<polygon fill="grey" stroke="grey" stroke-width="2" points="991.27,-15.81 981.23,-19.2 991.2,-22.81 991.27,-15.81"/>
</g>
<!-- 24&#45;&gt;23 -->
<g id="edge29" class="edge">
<title>24&#45;&gt;23</title>
<path fill="none" stroke="grey" stroke-width="2" d="M1349.6,-719.7C1345.73,-711.73 1341.05,-702.1 1336.76,-693.26"/>
<polygon fill="grey" stroke="grey" stroke-width="2" points="1339.83,-691.57 1332.31,-684.1 1333.53,-694.63 1339.83,-691.57"/>
</g>
<!-- 25&#45;&gt;64 -->
<g id="edge82" class="edge">
<title>25&#45;&gt;64</title>
<path fill="none" stroke="grey" stroke-width="2" d="M1127.39,-591.52C990.87,-586.99 610.91,-571.65 565,-540 528.83,-515.06 522,-494.93 522,-451 522,-451 522,-451 522,-161 522,-115.41 535.23,-97.53 573,-72 628.65,-34.39 832.07,-23.16 916.68,-20.08"/>
<polygon fill="grey" stroke="grey" stroke-width="2" points="917,-23.57 926.87,-19.72 916.75,-16.57 917,-23.57"/>
</g>
<!-- 65 -->
<g id="node66" class="node">
<title>65</title>
<path fill="none" stroke="#d6d856" stroke-width="2" d="M650,-324C650,-324 610,-324 610,-324 604,-324 598,-318 598,-312 598,-312 598,-300 598,-300 598,-294 604,-288 610,-288 610,-288 650,-288 650,-288 656,-288 662,-294 662,-300 662,-300 662,-312 662,-312 662,-318 656,-324 650,-324"/>
<text text-anchor="middle" x="630" y="-303.5" font-family="sans" font-size="10.00">virsorter2</text>
</g>
<!-- 25&#45;&gt;65 -->
<g id="edge102" class="edge">
<title>25&#45;&gt;65</title>
<path fill="none" stroke="grey" stroke-width="2" d="M1127.32,-586.85C1047.2,-574.9 884.98,-542.82 770,-468 714.85,-432.12 668.83,-368.52 645.82,-332.94"/>
<polygon fill="grey" stroke="grey" stroke-width="2" points="648.53,-330.68 640.22,-324.11 642.62,-334.43 648.53,-330.68"/>
</g>
<!-- 66 -->
<g id="node67" class="node">
<title>66</title>
<path fill="none" stroke="#56b1d8" stroke-width="2" d="M1475,-468C1475,-468 1439,-468 1439,-468 1433,-468 1427,-462 1427,-456 1427,-456 1427,-444 1427,-444 1427,-438 1433,-432 1439,-432 1439,-432 1475,-432 1475,-432 1481,-432 1487,-438 1487,-444 1487,-444 1487,-456 1487,-456 1487,-462 1481,-468 1475,-468"/>
<text text-anchor="middle" x="1457" y="-447.5" font-family="sans" font-size="10.00">bgc_split</text>
</g>
<!-- 25&#45;&gt;66 -->
<g id="edge103" class="edge">
<title>25&#45;&gt;66</title>
<path fill="none" stroke="grey" stroke-width="2" d="M1224.55,-589.45C1291.82,-583.52 1408.43,-569.25 1438,-540 1454.02,-524.16 1458.08,-498.35 1458.55,-478.59"/>
<polygon fill="grey" stroke="grey" stroke-width="2" points="1462.05,-478.32 1458.49,-468.34 1455.05,-478.36 1462.05,-478.32"/>
</g>
<!-- 67 -->
<g id="node68" class="node">
<title>67</title>
<path fill="none" stroke="#5663d8" stroke-width="2" d="M660,-540C660,-540 586,-540 586,-540 580,-540 574,-534 574,-528 574,-528 574,-516 574,-516 574,-510 580,-504 586,-504 586,-504 660,-504 660,-504 666,-504 672,-510 672,-516 672,-516 672,-528 672,-528 672,-534 666,-540 660,-540"/>
<text text-anchor="middle" x="623" y="-519.5" font-family="sans" font-size="10.00">seqkit_split_amr</text>
</g>
<!-- 25&#45;&gt;67 -->
<g id="edge104" class="edge">
<title>25&#45;&gt;67</title>
<path fill="none" stroke="grey" stroke-width="2" d="M1127.3,-590.25C1038.81,-584.71 845.99,-570.05 686,-540 684.72,-539.76 683.42,-539.5 682.12,-539.24"/>
<polygon fill="grey" stroke="grey" stroke-width="2" points="682.53,-535.75 672.01,-537.02 681.02,-542.58 682.53,-535.75"/>
</g>
<!-- 68 -->
<g id="node69" class="node">
<title>68</title>
<path fill="none" stroke="#d8bc56" stroke-width="2" d="M1202,-108C1202,-108 1172,-108 1172,-108 1166,-108 1160,-102 1160,-96 1160,-96 1160,-84 1160,-84 1160,-78 1166,-72 1172,-72 1172,-72 1202,-72 1202,-72 1208,-72 1214,-78 1214,-84 1214,-84 1214,-96 1214,-96 1214,-102 1208,-108 1202,-108"/>
<text text-anchor="middle" x="1187" y="-87.5" font-family="sans" font-size="10.00">rgi_run</text>
</g>
<!-- 25&#45;&gt;68 -->
<g id="edge106" class="edge">
<title>25&#45;&gt;68</title>
<path fill="none" stroke="grey" stroke-width="2" d="M1166.68,-575.84C1154.49,-552.33 1133.78,-508.39 1126,-468 1100.82,-337.25 1152.68,-179.64 1176.21,-117.77"/>
<polygon fill="grey" stroke="grey" stroke-width="2" points="1179.51,-118.94 1179.86,-108.35 1172.98,-116.41 1179.51,-118.94"/>
</g>
<!-- 69 -->
<g id="node70" class="node">
<title>69</title>
<path fill="none" stroke="#56d8d0" stroke-width="2" d="M1339,-180C1339,-180 1283,-180 1283,-180 1277,-180 1271,-174 1271,-168 1271,-168 1271,-156 1271,-156 1271,-150 1277,-144 1283,-144 1283,-144 1339,-144 1339,-144 1345,-144 1351,-150 1351,-156 1351,-156 1351,-168 1351,-168 1351,-174 1345,-180 1339,-180"/>
<text text-anchor="middle" x="1311" y="-159.5" font-family="sans" font-size="10.00">features_gbk</text>
</g>
<!-- 25&#45;&gt;69 -->
<g id="edge107" class="edge">
<title>25&#45;&gt;69</title>
<path fill="none" stroke="grey" stroke-width="2" d="M1206.9,-575.82C1243.91,-552.69 1301,-507.82 1301,-451 1301,-451 1301,-451 1301,-305 1301,-264.9 1305.02,-218.58 1307.96,-190.04"/>
<polygon fill="grey" stroke="grey" stroke-width="2" points="1311.45,-190.34 1309.02,-180.02 1304.49,-189.6 1311.45,-190.34"/>
</g>
<!-- 70 -->
<g id="node71" class="node">
<title>70</title>
<path fill="none" stroke="#56d8b1" stroke-width="2" d="M1417,-540C1417,-540 1341,-540 1341,-540 1335,-540 1329,-534 1329,-528 1329,-528 1329,-516 1329,-516 1329,-510 1335,-504 1341,-504 1341,-504 1417,-504 1417,-504 1423,-504 1429,-510 1429,-516 1429,-516 1429,-528 1429,-528 1429,-534 1423,-540 1417,-540"/>
<text text-anchor="middle" x="1379" y="-519.5" font-family="sans" font-size="10.00">genbank_queries</text>
</g>
<!-- 25&#45;&gt;70 -->
<g id="edge111" class="edge">
<title>25&#45;&gt;70</title>
<path fill="none" stroke="grey" stroke-width="2" d="M1224.62,-576.23C1253.2,-566.38 1289.54,-553.85 1319.78,-543.42"/>
<polygon fill="grey" stroke="grey" stroke-width="2" points="1321.05,-546.69 1329.36,-540.12 1318.77,-540.07 1321.05,-546.69"/>
</g>
<!-- 26 -->
<g id="node27" class="node">
<title>26</title>
<path fill="none" stroke="#afd856" stroke-width="2" d="M752.5,-180C752.5,-180 701.5,-180 701.5,-180 695.5,-180 689.5,-174 689.5,-168 689.5,-168 689.5,-156 689.5,-156 689.5,-150 695.5,-144 701.5,-144 701.5,-144 752.5,-144 752.5,-144 758.5,-144 764.5,-150 764.5,-156 764.5,-156 764.5,-168 764.5,-168 764.5,-174 758.5,-180 752.5,-180"/>
<text text-anchor="middle" x="727" y="-159.5" font-family="sans" font-size="10.00">virsorter2_2</text>
</g>
<!-- 30 -->
<g id="node31" class="node">
<title>30</title>
<path fill="none" stroke="#56d87b" stroke-width="2" d="M749.5,-108C749.5,-108 676.5,-108 676.5,-108 670.5,-108 664.5,-102 664.5,-96 664.5,-96 664.5,-84 664.5,-84 664.5,-78 670.5,-72 676.5,-72 676.5,-72 749.5,-72 749.5,-72 755.5,-72 761.5,-78 761.5,-84 761.5,-84 761.5,-96 761.5,-96 761.5,-102 755.5,-108 749.5,-108"/>
<text text-anchor="middle" x="713" y="-87.5" font-family="sans" font-size="10.00">dramv_annotate</text>
</g>
<!-- 26&#45;&gt;30 -->
<g id="edge37" class="edge">
<title>26&#45;&gt;30</title>
<path fill="none" stroke="grey" stroke-width="2" d="M723.54,-143.7C722,-135.98 720.14,-126.71 718.42,-118.11"/>
<polygon fill="grey" stroke="grey" stroke-width="2" points="721.81,-117.22 716.42,-108.1 714.95,-118.6 721.81,-117.22"/>
</g>
<!-- 26&#45;&gt;64 -->
<g id="edge83" class="edge">
<title>26&#45;&gt;64</title>
<path fill="none" stroke="grey" stroke-width="2" d="M690.97,-143.81C677.08,-135.16 662.7,-123.24 655,-108 647.78,-93.72 644.72,-84.26 655,-72 688.01,-32.63 844.08,-22.49 916.69,-19.89"/>
<polygon fill="grey" stroke="grey" stroke-width="2" points="916.89,-23.38 926.77,-19.56 916.66,-16.39 916.89,-23.38"/>
</g>
<!-- 27 -->
<g id="node28" class="node">
<title>27</title>
<path fill="none" stroke="#d88d56" stroke-width="2" stroke-dasharray="5,2" d="M797.5,-396C797.5,-396 740.5,-396 740.5,-396 734.5,-396 728.5,-390 728.5,-384 728.5,-384 728.5,-372 728.5,-372 728.5,-366 734.5,-360 740.5,-360 740.5,-360 797.5,-360 797.5,-360 803.5,-360 809.5,-366 809.5,-372 809.5,-372 809.5,-384 809.5,-384 809.5,-390 803.5,-396 797.5,-396"/>
<text text-anchor="middle" x="769" y="-375.5" font-family="sans" font-size="10.00">virsorter2_db</text>
</g>
<!-- 27&#45;&gt;26 -->
<g id="edge32" class="edge">
<title>27&#45;&gt;26</title>
<path fill="none" stroke="grey" stroke-width="2" d="M767.21,-359.86C765.21,-341.87 761.64,-312.83 757,-288 750.65,-254.02 741,-215.41 734.37,-190.2"/>
<polygon fill="grey" stroke="grey" stroke-width="2" points="737.68,-189.04 731.73,-180.27 730.92,-190.83 737.68,-189.04"/>
</g>
<!-- 27&#45;&gt;65 -->
<g id="edge101" class="edge">
<title>27&#45;&gt;65</title>
<path fill="none" stroke="grey" stroke-width="2" d="M735,-359.88C715.76,-350.19 691.56,-338 671.25,-327.77"/>
<polygon fill="grey" stroke="grey" stroke-width="2" points="672.73,-324.6 662.22,-323.23 669.58,-330.85 672.73,-324.6"/>
</g>
<!-- 28 -->
<g id="node29" class="node">
<title>28</title>
<path fill="none" stroke="#56d89a" stroke-width="2" d="M715,-252C715,-252 685,-252 685,-252 679,-252 673,-246 673,-240 673,-240 673,-228 673,-228 673,-222 679,-216 685,-216 685,-216 715,-216 715,-216 721,-216 727,-222 727,-228 727,-228 727,-240 727,-240 727,-246 721,-252 715,-252"/>
<text text-anchor="middle" x="700" y="-231.5" font-family="sans" font-size="10.00">checkv</text>
</g>
<!-- 28&#45;&gt;26 -->
<g id="edge33" class="edge">
<title>28&#45;&gt;26</title>
<path fill="none" stroke="grey" stroke-width="2" d="M706.67,-215.7C709.71,-207.81 713.38,-198.3 716.76,-189.55"/>
<polygon fill="grey" stroke="grey" stroke-width="2" points="720.07,-190.69 720.4,-180.1 713.54,-188.17 720.07,-190.69"/>
</g>
<!-- 33 -->
<g id="node34" class="node">
<title>33</title>
<path fill="none" stroke="#56d86b" stroke-width="2" d="M659.5,-180C659.5,-180 600.5,-180 600.5,-180 594.5,-180 588.5,-174 588.5,-168 588.5,-168 588.5,-156 588.5,-156 588.5,-150 594.5,-144 600.5,-144 600.5,-144 659.5,-144 659.5,-144 665.5,-144 671.5,-150 671.5,-156 671.5,-156 671.5,-168 671.5,-168 671.5,-174 665.5,-180 659.5,-180"/>
<text text-anchor="middle" x="630" y="-159.5" font-family="sans" font-size="10.00">viral_curation</text>
</g>
<!-- 28&#45;&gt;33 -->
<g id="edge38" class="edge">
<title>28&#45;&gt;33</title>
<path fill="none" stroke="grey" stroke-width="2" d="M682.7,-215.7C674.14,-207.14 663.66,-196.66 654.3,-187.3"/>
<polygon fill="grey" stroke="grey" stroke-width="2" points="656.65,-184.7 647.1,-180.1 651.7,-189.65 656.65,-184.7"/>
</g>
<!-- 29 -->
<g id="node30" class="node">
<title>29</title>
<path fill="none" stroke="#568ad8" stroke-width="2" stroke-dasharray="5,2" d="M736,-324C736,-324 692,-324 692,-324 686,-324 680,-318 680,-312 680,-312 680,-300 680,-300 680,-294 686,-288 692,-288 692,-288 736,-288 736,-288 742,-288 748,-294 748,-300 748,-300 748,-312 748,-312 748,-318 742,-324 736,-324"/>
<text text-anchor="middle" x="714" y="-303.5" font-family="sans" font-size="10.00">checkv_db</text>
</g>
<!-- 29&#45;&gt;28 -->
<g id="edge34" class="edge">
<title>29&#45;&gt;28</title>
<path fill="none" stroke="grey" stroke-width="2" d="M710.54,-287.7C709,-279.98 707.14,-270.71 705.42,-262.11"/>
<polygon fill="grey" stroke="grey" stroke-width="2" points="708.81,-261.22 703.42,-252.1 701.95,-262.6 708.81,-261.22"/>
</g>
<!-- 30&#45;&gt;64 -->
<g id="edge84" class="edge">
<title>30&#45;&gt;64</title>
<path fill="none" stroke="grey" stroke-width="2" d="M761.77,-74.83C807.77,-61.47 875.69,-41.75 917.27,-29.67"/>
<polygon fill="grey" stroke="grey" stroke-width="2" points="918.36,-33 926.99,-26.85 916.41,-26.27 918.36,-33"/>
</g>
<!-- 31 -->
<g id="node32" class="node">
<title>31</title>
<path fill="none" stroke="#56d8a2" stroke-width="2" stroke-dasharray="5,2" d="M835.5,-180C835.5,-180 794.5,-180 794.5,-180 788.5,-180 782.5,-174 782.5,-168 782.5,-168 782.5,-156 782.5,-156 782.5,-150 788.5,-144 794.5,-144 794.5,-144 835.5,-144 835.5,-144 841.5,-144 847.5,-150 847.5,-156 847.5,-156 847.5,-168 847.5,-168 847.5,-174 841.5,-180 835.5,-180"/>
<text text-anchor="middle" x="815" y="-159.5" font-family="sans" font-size="10.00">dramv_db</text>
</g>
<!-- 31&#45;&gt;30 -->
<g id="edge36" class="edge">
<title>31&#45;&gt;30</title>
<path fill="none" stroke="grey" stroke-width="2" d="M790.05,-143.88C776.96,-134.89 760.74,-123.76 746.56,-114.03"/>
<polygon fill="grey" stroke="grey" stroke-width="2" points="748.27,-110.96 738.05,-108.19 744.31,-116.73 748.27,-110.96"/>
</g>
<!-- 32 -->
<g id="node33" class="node">
<title>32</title>
<path fill="none" stroke="#9fd856" stroke-width="2" stroke-dasharray="5,2" d="M914,-108C914,-108 830,-108 830,-108 824,-108 818,-102 818,-96 818,-96 818,-84 818,-84 818,-78 824,-72 830,-72 830,-72 914,-72 914,-72 920,-72 926,-78 926,-84 926,-84 926,-96 926,-96 926,-102 920,-108 914,-108"/>
<text text-anchor="middle" x="872" y="-87.5" font-family="sans" font-size="10.00">dramv_summarize</text>
</g>
<!-- 32&#45;&gt;64 -->
<g id="edge85" class="edge">
<title>32&#45;&gt;64</title>
<path fill="none" stroke="grey" stroke-width="2" d="M892.27,-71.7C902.5,-62.97 915.06,-52.24 926.18,-42.75"/>
<polygon fill="grey" stroke="grey" stroke-width="2" points="928.63,-45.26 933.96,-36.1 924.09,-39.94 928.63,-45.26"/>
</g>
<!-- 33&#45;&gt;64 -->
<g id="edge86" class="edge">
<title>33&#45;&gt;64</title>
<path fill="none" stroke="grey" stroke-width="2" d="M627.54,-143.65C625.75,-123.53 626.3,-90.75 645,-72 682.55,-34.35 842.78,-23.3 916.55,-20.17"/>
<polygon fill="grey" stroke="grey" stroke-width="2" points="916.93,-23.66 926.79,-19.77 916.65,-16.67 916.93,-23.66"/>
</g>
<!-- 34 -->
<g id="node35" class="node">
<title>34</title>
<path fill="none" stroke="#566bd8" stroke-width="2" stroke-dasharray="5,2" d="M1260.5,-252C1260.5,-252 1193.5,-252 1193.5,-252 1187.5,-252 1181.5,-246 1181.5,-240 1181.5,-240 1181.5,-228 1181.5,-228 1181.5,-222 1187.5,-216 1193.5,-216 1193.5,-216 1260.5,-216 1260.5,-216 1266.5,-216 1272.5,-222 1272.5,-228 1272.5,-228 1272.5,-240 1272.5,-240 1272.5,-246 1266.5,-252 1260.5,-252"/>
<text text-anchor="middle" x="1227" y="-231.5" font-family="sans" font-size="10.00">antismash_join</text>
</g>
<!-- 34&#45;&gt;64 -->
<g id="edge87" class="edge">
<title>34&#45;&gt;64</title>
<path fill="none" stroke="grey" stroke-width="2" d="M1232.86,-215.54C1242.55,-183.08 1257.61,-113.04 1223,-72 1193.66,-37.2 1058,-24.82 991.27,-20.78"/>
<polygon fill="grey" stroke="grey" stroke-width="2" points="991.36,-17.28 981.18,-20.2 990.96,-24.27 991.36,-17.28"/>
</g>
<!-- 34&#45;&gt;69 -->
<g id="edge108" class="edge">
<title>34&#45;&gt;69</title>
<path fill="none" stroke="grey" stroke-width="2" d="M1247.76,-215.7C1258.24,-206.97 1271.11,-196.24 1282.5,-186.75"/>
<polygon fill="grey" stroke="grey" stroke-width="2" points="1285.03,-189.19 1290.47,-180.1 1280.55,-183.82 1285.03,-189.19"/>
</g>
<!-- 35 -->
<g id="node36" class="node">
<title>35</title>
<path fill="none" stroke="#56a2d8" stroke-width="2" stroke-dasharray="5,2" d="M1256.5,-324C1256.5,-324 1161.5,-324 1161.5,-324 1155.5,-324 1149.5,-318 1149.5,-312 1149.5,-312 1149.5,-300 1149.5,-300 1149.5,-294 1155.5,-288 1161.5,-288 1161.5,-288 1256.5,-288 1256.5,-288 1262.5,-288 1268.5,-294 1268.5,-300 1268.5,-300 1268.5,-312 1268.5,-312 1268.5,-318 1262.5,-324 1256.5,-324"/>
<text text-anchor="middle" x="1209" y="-303.5" font-family="sans" font-size="10.00">antismash_summary</text>
</g>
<!-- 35&#45;&gt;34 -->
<g id="edge40" class="edge">
<title>35&#45;&gt;34</title>
<path fill="none" stroke="grey" stroke-width="2" d="M1213.45,-287.7C1215.45,-279.9 1217.87,-270.51 1220.1,-261.83"/>
<polygon fill="grey" stroke="grey" stroke-width="2" points="1223.5,-262.66 1222.6,-252.1 1216.72,-260.92 1223.5,-262.66"/>
</g>
<!-- 36 -->
<g id="node37" class="node">
<title>36</title>
<path fill="none" stroke="#68d856" stroke-width="2" stroke-dasharray="5,2" d="M1245,-396C1245,-396 1169,-396 1169,-396 1163,-396 1157,-390 1157,-384 1157,-384 1157,-372 1157,-372 1157,-366 1163,-360 1169,-360 1169,-360 1245,-360 1245,-360 1251,-360 1257,-366 1257,-372 1257,-372 1257,-384 1257,-384 1257,-390 1251,-396 1245,-396"/>
<text text-anchor="middle" x="1207" y="-381" font-family="sans" font-size="10.00">antismash_run</text>
<text text-anchor="middle" x="1207" y="-370" font-family="sans" font-size="10.00">part: CP016590.1</text>
</g>
<!-- 36&#45;&gt;35 -->
<g id="edge41" class="edge">
<title>36&#45;&gt;35</title>
<path fill="none" stroke="grey" stroke-width="2" d="M1207.49,-359.7C1207.71,-351.98 1207.98,-342.71 1208.23,-334.11"/>
<polygon fill="grey" stroke="grey" stroke-width="2" points="1211.72,-334.2 1208.51,-324.1 1204.73,-334 1211.72,-334.2"/>
</g>
<!-- 37 -->
<g id="node38" class="node">
<title>37</title>
<path fill="none" stroke="#565bd8" stroke-width="2" stroke-dasharray="5,2" d="M1260.5,-468C1260.5,-468 1147.5,-468 1147.5,-468 1141.5,-468 1135.5,-462 1135.5,-456 1135.5,-456 1135.5,-444 1135.5,-444 1135.5,-438 1141.5,-432 1147.5,-432 1147.5,-432 1260.5,-432 1260.5,-432 1266.5,-432 1272.5,-438 1272.5,-444 1272.5,-444 1272.5,-456 1272.5,-456 1272.5,-462 1266.5,-468 1260.5,-468"/>
<text text-anchor="middle" x="1204" y="-447.5" font-family="sans" font-size="10.00">antismash_docker_script</text>
</g>
<!-- 37&#45;&gt;36 -->
<g id="edge42" class="edge">
<title>37&#45;&gt;36</title>
<path fill="none" stroke="grey" stroke-width="2" d="M1204.74,-431.7C1205.07,-423.98 1205.47,-414.71 1205.84,-406.11"/>
<polygon fill="grey" stroke="grey" stroke-width="2" points="1209.34,-406.25 1206.27,-396.1 1202.34,-405.95 1209.34,-406.25"/>
</g>
<!-- 38 -->
<g id="node39" class="node">
<title>38</title>
<path fill="none" stroke="#d8a456" stroke-width="2" stroke-dasharray="5,2" d="M1130,-108C1130,-108 1032,-108 1032,-108 1026,-108 1020,-102 1020,-96 1020,-96 1020,-84 1020,-84 1020,-78 1026,-72 1032,-72 1032,-72 1130,-72 1130,-72 1136,-72 1142,-78 1142,-84 1142,-84 1142,-96 1142,-96 1142,-102 1136,-108 1130,-108"/>
<text text-anchor="middle" x="1081" y="-87.5" font-family="sans" font-size="10.00">AMRFinderPlus_getdb</text>
</g>
<!-- 38&#45;&gt;64 -->
<g id="edge88" class="edge">
<title>38&#45;&gt;64</title>
<path fill="none" stroke="grey" stroke-width="2" d="M1049.93,-71.88C1031.88,-61.93 1009.06,-49.35 990.2,-38.95"/>
<polygon fill="grey" stroke="grey" stroke-width="2" points="991.74,-35.81 981.3,-34.05 988.37,-41.94 991.74,-35.81"/>
</g>
<!-- 39 -->
<g id="node40" class="node">
<title>39</title>
<path fill="none" stroke="#61d856" stroke-width="2" d="M928.5,-396C928.5,-396 839.5,-396 839.5,-396 833.5,-396 827.5,-390 827.5,-384 827.5,-384 827.5,-372 827.5,-372 827.5,-366 833.5,-360 839.5,-360 839.5,-360 928.5,-360 928.5,-360 934.5,-360 940.5,-366 940.5,-372 940.5,-372 940.5,-384 940.5,-384 940.5,-390 934.5,-396 928.5,-396"/>
<text text-anchor="middle" x="884" y="-375.5" font-family="sans" font-size="10.00">AMRFinderPlus_join</text>
</g>
<!-- 42 -->
<g id="node43" class="node">
<title>42</title>
<path fill="none" stroke="#ced856" stroke-width="2" d="M976,-324C976,-324 932,-324 932,-324 926,-324 920,-318 920,-312 920,-312 920,-300 920,-300 920,-294 926,-288 932,-288 932,-288 976,-288 976,-288 982,-288 988,-294 988,-300 988,-300 988,-312 988,-312 988,-318 982,-324 976,-324"/>
<text text-anchor="middle" x="954" y="-303.5" font-family="sans" font-size="10.00">hamronize</text>
</g>
<!-- 39&#45;&gt;42 -->
<g id="edge45" class="edge">
<title>39&#45;&gt;42</title>
<path fill="none" stroke="grey" stroke-width="2" d="M901.3,-359.7C909.86,-351.14 920.34,-340.66 929.7,-331.3"/>
<polygon fill="grey" stroke="grey" stroke-width="2" points="932.3,-333.65 936.9,-324.1 927.35,-328.7 932.3,-333.65"/>
</g>
<!-- 39&#45;&gt;64 -->
<g id="edge89" class="edge">
<title>39&#45;&gt;64</title>
<path fill="none" stroke="grey" stroke-width="2" d="M886.23,-359.81C890.64,-319.23 896.78,-215.49 856,-144 842.96,-121.14 820.65,-131.59 809,-108 801.92,-93.65 799.83,-85.11 809,-72 833.15,-37.46 882.33,-25.36 916.69,-21.16"/>
<polygon fill="grey" stroke="grey" stroke-width="2" points="917.25,-24.62 926.83,-20.09 916.52,-17.66 917.25,-24.62"/>
</g>
<!-- 40 -->
<g id="node41" class="node">
<title>40</title>
<path fill="none" stroke="#d89556" stroke-width="2" d="M877,-468C877,-468 791,-468 791,-468 785,-468 779,-462 779,-456 779,-456 779,-444 779,-444 779,-438 785,-432 791,-432 791,-432 877,-432 877,-432 883,-432 889,-438 889,-444 889,-444 889,-456 889,-456 889,-462 883,-468 877,-468"/>
<text text-anchor="middle" x="834" y="-453" font-family="sans" font-size="10.00">AMRFinderPlus_run</text>
<text text-anchor="middle" x="834" y="-442" font-family="sans" font-size="10.00">part: part_001</text>
</g>
<!-- 40&#45;&gt;39 -->
<g id="edge43" class="edge">
<title>40&#45;&gt;39</title>
<path fill="none" stroke="grey" stroke-width="2" d="M846.36,-431.7C852.23,-423.47 859.37,-413.48 865.84,-404.42"/>
<polygon fill="grey" stroke="grey" stroke-width="2" points="868.82,-406.28 871.78,-396.1 863.12,-402.21 868.82,-406.28"/>
</g>
<!-- 41 -->
<g id="node42" class="node">
<title>41</title>
<path fill="none" stroke="#56d88a" stroke-width="2" stroke-dasharray="5,2" d="M1053,-180C1053,-180 1015,-180 1015,-180 1009,-180 1003,-174 1003,-168 1003,-168 1003,-156 1003,-156 1003,-150 1009,-144 1015,-144 1015,-144 1053,-144 1053,-144 1059,-144 1065,-150 1065,-156 1065,-156 1065,-168 1065,-168 1065,-174 1059,-180 1053,-180"/>
<text text-anchor="middle" x="1034" y="-159.5" font-family="sans" font-size="10.00">rgi_getdb</text>
</g>
<!-- 41&#45;&gt;64 -->
<g id="edge90" class="edge">
<title>41&#45;&gt;64</title>
<path fill="none" stroke="grey" stroke-width="2" d="M1024.35,-143.87C1010.54,-119.35 985,-74.03 968.79,-45.26"/>
<polygon fill="grey" stroke="grey" stroke-width="2" points="971.64,-43.18 963.68,-36.19 965.54,-46.62 971.64,-43.18"/>
</g>
<!-- 41&#45;&gt;68 -->
<g id="edge105" class="edge">
<title>41&#45;&gt;68</title>
<path fill="none" stroke="grey" stroke-width="2" d="M1065.35,-146.96C1087.01,-137.23 1116.69,-123.81 1150.68,-108.12"/>
<polygon fill="grey" stroke="grey" stroke-width="2" points="1152.29,-111.23 1159.89,-103.86 1149.35,-104.88 1152.29,-111.23"/>
</g>
<!-- 45 -->
<g id="node46" class="node">
<title>45</title>
<path fill="none" stroke="#56d863" stroke-width="2" d="M1074,-252C1074,-252 994,-252 994,-252 988,-252 982,-246 982,-240 982,-240 982,-228 982,-228 982,-222 988,-216 994,-216 994,-216 1074,-216 1074,-216 1080,-216 1086,-222 1086,-228 1086,-228 1086,-240 1086,-240 1086,-246 1080,-252 1074,-252"/>
<text text-anchor="middle" x="1034" y="-231.5" font-family="sans" font-size="10.00">hamronize_dedup</text>
</g>
<!-- 42&#45;&gt;45 -->
<g id="edge48" class="edge">
<title>42&#45;&gt;45</title>
<path fill="none" stroke="grey" stroke-width="2" d="M973.78,-287.7C983.75,-278.97 996.01,-268.24 1006.86,-258.75"/>
<polygon fill="grey" stroke="grey" stroke-width="2" points="1009.23,-261.32 1014.45,-252.1 1004.62,-256.06 1009.23,-261.32"/>
</g>
<!-- 42&#45;&gt;64 -->
<g id="edge91" class="edge">
<title>42&#45;&gt;64</title>
<path fill="none" stroke="grey" stroke-width="2" d="M954,-287.97C954,-240.29 954,-105.18 954,-46.63"/>
<polygon fill="grey" stroke="grey" stroke-width="2" points="957.5,-46.31 954,-36.31 950.5,-46.31 957.5,-46.31"/>
</g>
<!-- 43 -->
<g id="node44" class="node">
<title>43</title>
<path fill="none" stroke="#97d856" stroke-width="2" d="M1399,-396C1399,-396 1341,-396 1341,-396 1335,-396 1329,-390 1329,-384 1329,-384 1329,-372 1329,-372 1329,-366 1335,-360 1341,-360 1341,-360 1399,-360 1399,-360 1405,-360 1411,-366 1411,-372 1411,-372 1411,-384 1411,-384 1411,-390 1405,-396 1399,-396"/>
<text text-anchor="middle" x="1370" y="-375.5" font-family="sans" font-size="10.00">genbank_join</text>
</g>
<!-- 43&#45;&gt;69 -->
<g id="edge109" class="edge">
<title>43&#45;&gt;69</title>
<path fill="none" stroke="grey" stroke-width="2" d="M1365.27,-359.85C1355.04,-322.75 1330.8,-234.81 1318.47,-190.1"/>
<polygon fill="grey" stroke="grey" stroke-width="2" points="1321.78,-188.94 1315.75,-180.23 1315.03,-190.8 1321.78,-188.94"/>
</g>
<!-- 44 -->
<g id="node45" class="node">
<title>44</title>
<path fill="none" stroke="#d87556" stroke-width="2" d="M1397.5,-468C1397.5,-468 1342.5,-468 1342.5,-468 1336.5,-468 1330.5,-462 1330.5,-456 1330.5,-456 1330.5,-444 1330.5,-444 1330.5,-438 1336.5,-432 1342.5,-432 1342.5,-432 1397.5,-432 1397.5,-432 1403.5,-432 1409.5,-438 1409.5,-444 1409.5,-444 1409.5,-456 1409.5,-456 1409.5,-462 1403.5,-468 1397.5,-468"/>
<text text-anchor="middle" x="1370" y="-453" font-family="sans" font-size="10.00">genbank_api</text>
<text text-anchor="middle" x="1370" y="-442" font-family="sans" font-size="10.00">batch: 0</text>
</g>
<!-- 44&#45;&gt;43 -->
<g id="edge46" class="edge">
<title>44&#45;&gt;43</title>
<path fill="none" stroke="grey" stroke-width="2" d="M1370,-431.7C1370,-423.98 1370,-414.71 1370,-406.11"/>
<polygon fill="grey" stroke="grey" stroke-width="2" points="1373.5,-406.1 1370,-396.1 1366.5,-406.1 1373.5,-406.1"/>
</g>
<!-- 45&#45;&gt;69 -->
<g id="edge110" class="edge">
<title>45&#45;&gt;69</title>
<path fill="none" stroke="grey" stroke-width="2" d="M1086.1,-219.83C1136.24,-207.16 1211.54,-188.13 1260.98,-175.64"/>
<polygon fill="grey" stroke="grey" stroke-width="2" points="1261.97,-179 1270.81,-173.16 1260.26,-172.21 1261.97,-179"/>
</g>
<!-- 46 -->
<g id="node47" class="node">
<title>46</title>
<path fill="none" stroke="#80d856" stroke-width="2" d="M1341.5,-108C1341.5,-108 1282.5,-108 1282.5,-108 1276.5,-108 1270.5,-102 1270.5,-96 1270.5,-96 1270.5,-84 1270.5,-84 1270.5,-78 1276.5,-72 1282.5,-72 1282.5,-72 1341.5,-72 1341.5,-72 1347.5,-72 1353.5,-78 1353.5,-84 1353.5,-84 1353.5,-96 1353.5,-96 1353.5,-102 1347.5,-108 1341.5,-108"/>
<text text-anchor="middle" x="1312" y="-87.5" font-family="sans" font-size="10.00">features_json</text>
</g>
<!-- 46&#45;&gt;64 -->
<g id="edge92" class="edge">
<title>46&#45;&gt;64</title>
<path fill="none" stroke="grey" stroke-width="2" d="M1270.26,-75.72C1265.47,-74.38 1260.64,-73.11 1256,-72 1161.68,-49.49 1048.68,-32.18 991.34,-24.07"/>
<polygon fill="grey" stroke="grey" stroke-width="2" points="991.69,-20.58 981.3,-22.66 990.71,-27.51 991.69,-20.58"/>
</g>
<!-- 47 -->
<g id="node48" class="node">
<title>47</title>
<path fill="none" stroke="#c6d856" stroke-width="2" stroke-dasharray="5,2" d="M1622,-108C1622,-108 1578,-108 1578,-108 1572,-108 1566,-102 1566,-96 1566,-96 1566,-84 1566,-84 1566,-78 1572,-72 1578,-72 1578,-72 1622,-72 1622,-72 1628,-72 1634,-78 1634,-84 1634,-84 1634,-96 1634,-96 1634,-102 1628,-108 1622,-108"/>
<text text-anchor="middle" x="1600" y="-87.5" font-family="sans" font-size="10.00">pmlst_join</text>
</g>
<!-- 47&#45;&gt;64 -->
<g id="edge93" class="edge">
<title>47&#45;&gt;64</title>
<path fill="none" stroke="grey" stroke-width="2" d="M1565.54,-74.39C1562.68,-73.48 1559.81,-72.66 1557,-72 1347.27,-22.43 1086.63,-18.27 991.21,-18.57"/>
<polygon fill="grey" stroke="grey" stroke-width="2" points="991.17,-15.07 981.19,-18.62 991.2,-22.07 991.17,-15.07"/>
</g>
<!-- 48 -->
<g id="node49" class="node">
<title>48</title>
<path fill="none" stroke="#56d8b1" stroke-width="2" stroke-dasharray="5,2" d="M1622,-180C1622,-180 1530,-180 1530,-180 1524,-180 1518,-174 1518,-168 1518,-168 1518,-156 1518,-156 1518,-150 1524,-144 1530,-144 1530,-144 1622,-144 1622,-144 1628,-144 1634,-150 1634,-156 1634,-156 1634,-168 1634,-168 1634,-174 1628,-180 1622,-180"/>
<text text-anchor="middle" x="1576" y="-165" font-family="sans" font-size="10.00">pmlst_run</text>
<text text-anchor="middle" x="1576" y="-154" font-family="sans" font-size="10.00">sample: CP016590.1</text>
</g>
<!-- 48&#45;&gt;47 -->
<g id="edge50" class="edge">
<title>48&#45;&gt;47</title>
<path fill="none" stroke="grey" stroke-width="2" d="M1581.93,-143.7C1584.61,-135.9 1587.83,-126.51 1590.8,-117.83"/>
<polygon fill="grey" stroke="grey" stroke-width="2" points="1594.2,-118.7 1594.14,-108.1 1587.58,-116.43 1594.2,-118.7"/>
</g>
<!-- 49 -->
<g id="node50" class="node">
<title>49</title>
<path fill="none" stroke="#d86656" stroke-width="2" stroke-dasharray="5,2" d="M1614,-252C1614,-252 1552,-252 1552,-252 1546,-252 1540,-246 1540,-240 1540,-240 1540,-228 1540,-228 1540,-222 1546,-216 1552,-216 1552,-216 1614,-216 1614,-216 1620,-216 1626,-222 1626,-228 1626,-228 1626,-240 1626,-240 1626,-246 1620,-252 1614,-252"/>
<text text-anchor="middle" x="1583" y="-231.5" font-family="sans" font-size="10.00">pmlst_blastdb</text>
</g>
<!-- 49&#45;&gt;48 -->
<g id="edge51" class="edge">
<title>49&#45;&gt;48</title>
<path fill="none" stroke="grey" stroke-width="2" d="M1581.27,-215.7C1580.5,-207.98 1579.57,-198.71 1578.71,-190.11"/>
<polygon fill="grey" stroke="grey" stroke-width="2" points="1582.19,-189.71 1577.71,-180.1 1575.22,-190.4 1582.19,-189.71"/>
</g>
<!-- 50 -->
<g id="node51" class="node">
<title>50</title>
<path fill="none" stroke="#56c1d8" stroke-width="2" stroke-dasharray="5,2" d="M1567,-324C1567,-324 1529,-324 1529,-324 1523,-324 1517,-318 1517,-312 1517,-312 1517,-300 1517,-300 1517,-294 1523,-288 1529,-288 1529,-288 1567,-288 1567,-288 1573,-288 1579,-294 1579,-300 1579,-300 1579,-312 1579,-312 1579,-318 1573,-324 1567,-324"/>
<text text-anchor="middle" x="1548" y="-303.5" font-family="sans" font-size="10.00">pmlst_db</text>
</g>
<!-- 50&#45;&gt;48 -->
<g id="edge52" class="edge">
<title>50&#45;&gt;48</title>
<path fill="none" stroke="grey" stroke-width="2" d="M1539.4,-287.83C1531.47,-269.57 1522.16,-240.07 1531,-216 1534.78,-205.7 1541.56,-196.02 1548.72,-187.84"/>
<polygon fill="grey" stroke="grey" stroke-width="2" points="1551.34,-190.16 1555.62,-180.47 1546.23,-185.38 1551.34,-190.16"/>
</g>
<!-- 50&#45;&gt;49 -->
<g id="edge53" class="edge">
<title>50&#45;&gt;49</title>
<path fill="none" stroke="grey" stroke-width="2" d="M1556.65,-287.7C1560.64,-279.73 1565.45,-270.1 1569.87,-261.26"/>
<polygon fill="grey" stroke="grey" stroke-width="2" points="1573.11,-262.61 1574.45,-252.1 1566.85,-259.48 1573.11,-262.61"/>
</g>
<!-- 51 -->
<g id="node52" class="node">
<title>51</title>
<path fill="none" stroke="#56d85b" stroke-width="2" stroke-dasharray="5,2" d="M1536,-108C1536,-108 1460,-108 1460,-108 1454,-108 1448,-102 1448,-96 1448,-96 1448,-84 1448,-84 1448,-78 1454,-72 1460,-72 1460,-72 1536,-72 1536,-72 1542,-72 1548,-78 1548,-84 1548,-84 1548,-96 1548,-96 1548,-102 1542,-108 1536,-108"/>
<text text-anchor="middle" x="1498" y="-87.5" font-family="sans" font-size="10.00">ecosystem_taxid</text>
</g>
<!-- 51&#45;&gt;64 -->
<g id="edge94" class="edge">
<title>51&#45;&gt;64</title>
<path fill="none" stroke="grey" stroke-width="2" d="M1447.85,-74.92C1443.19,-73.84 1438.52,-72.84 1434,-72 1270.54,-41.44 1072.23,-26.42 991.2,-21.2"/>
<polygon fill="grey" stroke="grey" stroke-width="2" points="991.21,-17.7 981.01,-20.56 990.77,-24.68 991.21,-17.7"/>
</g>
<!-- 52 -->
<g id="node53" class="node">
<title>52</title>
<path fill="none" stroke="#56c9d8" stroke-width="2" stroke-dasharray="5,2" d="M147,-540C147,-540 55,-540 55,-540 49,-540 43,-534 43,-528 43,-528 43,-516 43,-516 43,-510 49,-504 55,-504 55,-504 147,-504 147,-504 153,-504 159,-510 159,-516 159,-516 159,-528 159,-528 159,-534 153,-540 147,-540"/>
<text text-anchor="middle" x="101" y="-519.5" font-family="sans" font-size="10.00">disease_infer_check</text>
</g>
<!-- 60 -->
<g id="node61" class="node">
<title>60</title>
<path fill="none" stroke="#56d882" stroke-width="2" stroke-dasharray="5,2" d="M261.5,-468C261.5,-468 196.5,-468 196.5,-468 190.5,-468 184.5,-462 184.5,-456 184.5,-456 184.5,-444 184.5,-444 184.5,-438 190.5,-432 196.5,-432 196.5,-432 261.5,-432 261.5,-432 267.5,-432 273.5,-438 273.5,-444 273.5,-444 273.5,-456 273.5,-456 273.5,-462 267.5,-468 261.5,-468"/>
<text text-anchor="middle" x="229" y="-447.5" font-family="sans" font-size="10.00">locations_infer</text>
</g>
<!-- 52&#45;&gt;60 -->
<g id="edge67" class="edge">
<title>52&#45;&gt;60</title>
<path fill="none" stroke="grey" stroke-width="2" d="M132.31,-503.88C149.2,-494.64 170.25,-483.13 188.38,-473.21"/>
<polygon fill="grey" stroke="grey" stroke-width="2" points="190.47,-476.06 197.57,-468.19 187.11,-469.92 190.47,-476.06"/>
</g>
<!-- 52&#45;&gt;64 -->
<g id="edge95" class="edge">
<title>52&#45;&gt;64</title>
<path fill="none" stroke="grey" stroke-width="2" d="M106.67,-503.73C114.85,-477.21 129,-424.73 129,-379 129,-379 129,-379 129,-161 129,-103.47 170.36,-95.21 223,-72 349.13,-16.39 785.36,-16.95 916.45,-18.43"/>
<polygon fill="grey" stroke="grey" stroke-width="2" points="916.73,-21.93 926.77,-18.56 916.81,-14.93 916.73,-21.93"/>
</g>
<!-- 53 -->
<g id="node54" class="node">
<title>53</title>
<path fill="none" stroke="#56d8c1" stroke-width="2" stroke-dasharray="5,2" d="M181,-612C181,-612 123,-612 123,-612 117,-612 111,-606 111,-600 111,-600 111,-588 111,-588 111,-582 117,-576 123,-576 123,-576 181,-576 181,-576 187,-576 193,-582 193,-588 193,-588 193,-600 193,-600 193,-606 187,-612 181,-612"/>
<text text-anchor="middle" x="152" y="-591.5" font-family="sans" font-size="10.00">disease_infer</text>
</g>
<!-- 53&#45;&gt;52 -->
<g id="edge54" class="edge">
<title>53&#45;&gt;52</title>
<path fill="none" stroke="grey" stroke-width="2" d="M139.39,-575.7C133.4,-567.47 126.12,-557.48 119.52,-548.42"/>
<polygon fill="grey" stroke="grey" stroke-width="2" points="122.18,-546.13 113.46,-540.1 116.52,-550.25 122.18,-546.13"/>
</g>
<!-- 54 -->
<g id="node55" class="node">
<title>54</title>
<path fill="none" stroke="#88d856" stroke-width="2" stroke-dasharray="5,2" d="M180.5,-828C180.5,-828 73.5,-828 73.5,-828 67.5,-828 61.5,-822 61.5,-816 61.5,-816 61.5,-804 61.5,-804 61.5,-798 67.5,-792 73.5,-792 73.5,-792 180.5,-792 180.5,-792 186.5,-792 192.5,-798 192.5,-804 192.5,-804 192.5,-816 192.5,-816 192.5,-822 186.5,-828 180.5,-828"/>
<text text-anchor="middle" x="127" y="-807.5" font-family="sans" font-size="10.00">ecosystem_infer_check</text>
</g>
<!-- 54&#45;&gt;53 -->
<g id="edge55" class="edge">
<title>54&#45;&gt;53</title>
<path fill="none" stroke="grey" stroke-width="2" d="M125.47,-791.86C123.27,-762.19 120.5,-699.51 131,-648 132.82,-639.08 136.04,-629.72 139.43,-621.4"/>
<polygon fill="grey" stroke="grey" stroke-width="2" points="142.65,-622.76 143.4,-612.19 136.22,-619.99 142.65,-622.76"/>
</g>
<!-- 59 -->
<g id="node60" class="node">
<title>59</title>
<path fill="none" stroke="#56d8b9" stroke-width="2" stroke-dasharray="5,2" d="M208,-756C208,-756 178,-756 178,-756 172,-756 166,-750 166,-744 166,-744 166,-732 166,-732 166,-726 172,-720 178,-720 178,-720 208,-720 208,-720 214,-720 220,-726 220,-732 220,-732 220,-744 220,-744 220,-750 214,-756 208,-756"/>
<text text-anchor="middle" x="193" y="-735.5" font-family="sans" font-size="10.00">disease</text>
</g>
<!-- 54&#45;&gt;59 -->
<g id="edge64" class="edge">
<title>54&#45;&gt;59</title>
<path fill="none" stroke="grey" stroke-width="2" d="M143.31,-791.7C151.31,-783.22 161.07,-772.86 169.82,-763.58"/>
<polygon fill="grey" stroke="grey" stroke-width="2" points="172.56,-765.78 176.87,-756.1 167.47,-760.98 172.56,-765.78"/>
</g>
<!-- 55 -->
<g id="node56" class="node">
<title>55</title>
<path fill="none" stroke="#d86e56" stroke-width="2" stroke-dasharray="5,2" d="M164,-900C164,-900 90,-900 90,-900 84,-900 78,-894 78,-888 78,-888 78,-876 78,-876 78,-870 84,-864 90,-864 90,-864 164,-864 164,-864 170,-864 176,-870 176,-876 176,-876 176,-888 176,-888 176,-894 170,-900 164,-900"/>
<text text-anchor="middle" x="127" y="-879.5" font-family="sans" font-size="10.00">ecosystem_infer</text>
</g>
<!-- 55&#45;&gt;54 -->
<g id="edge58" class="edge">
<title>55&#45;&gt;54</title>
<path fill="none" stroke="grey" stroke-width="2" d="M127,-863.7C127,-855.98 127,-846.71 127,-838.11"/>
<polygon fill="grey" stroke="grey" stroke-width="2" points="130.5,-838.1 127,-828.1 123.5,-838.1 130.5,-838.1"/>
</g>
<!-- 56 -->
<g id="node57" class="node">
<title>56</title>
<path fill="none" stroke="#78d856" stroke-width="2" stroke-dasharray="5,2" d="M195.5,-972C195.5,-972 98.5,-972 98.5,-972 92.5,-972 86.5,-966 86.5,-960 86.5,-960 86.5,-948 86.5,-948 86.5,-942 92.5,-936 98.5,-936 98.5,-936 195.5,-936 195.5,-936 201.5,-936 207.5,-942 207.5,-948 207.5,-948 207.5,-960 207.5,-960 207.5,-966 201.5,-972 195.5,-972"/>
<text text-anchor="middle" x="147" y="-951.5" font-family="sans" font-size="10.00">ecosystem_manually</text>
</g>
<!-- 56&#45;&gt;55 -->
<g id="edge59" class="edge">
<title>56&#45;&gt;55</title>
<path fill="none" stroke="grey" stroke-width="2" d="M142.06,-935.7C139.83,-927.9 137.15,-918.51 134.67,-909.83"/>
<polygon fill="grey" stroke="grey" stroke-width="2" points="138,-908.76 131.89,-900.1 131.27,-910.68 138,-908.76"/>
</g>
<!-- 57 -->
<g id="node58" class="node">
<title>57</title>
<path fill="none" stroke="#d89c56" stroke-width="2" stroke-dasharray="5,2" d="M195,-1044C195,-1044 101,-1044 101,-1044 95,-1044 89,-1038 89,-1032 89,-1032 89,-1020 89,-1020 89,-1014 95,-1008 101,-1008 101,-1008 195,-1008 195,-1008 201,-1008 207,-1014 207,-1020 207,-1020 207,-1032 207,-1032 207,-1038 201,-1044 195,-1044"/>
<text text-anchor="middle" x="148" y="-1023.5" font-family="sans" font-size="10.00">ecosystem_mapping</text>
</g>
<!-- 57&#45;&gt;56 -->
<g id="edge61" class="edge">
<title>57&#45;&gt;56</title>
<path fill="none" stroke="grey" stroke-width="2" d="M147.75,-1007.7C147.64,-999.98 147.51,-990.71 147.39,-982.11"/>
<polygon fill="grey" stroke="grey" stroke-width="2" points="150.89,-982.05 147.24,-972.1 143.89,-982.15 150.89,-982.05"/>
</g>
<!-- 58 -->
<g id="node59" class="node">
<title>58</title>
<path fill="none" stroke="#56d873" stroke-width="2" stroke-dasharray="5,2" d="M233.5,-684C233.5,-684 152.5,-684 152.5,-684 146.5,-684 140.5,-678 140.5,-672 140.5,-672 140.5,-660 140.5,-660 140.5,-654 146.5,-648 152.5,-648 152.5,-648 233.5,-648 233.5,-648 239.5,-648 245.5,-654 245.5,-660 245.5,-660 245.5,-672 245.5,-672 245.5,-678 239.5,-684 233.5,-684"/>
<text text-anchor="middle" x="193" y="-663.5" font-family="sans" font-size="10.00">disease_manually</text>
</g>
<!-- 58&#45;&gt;53 -->
<g id="edge56" class="edge">
<title>58&#45;&gt;53</title>
<path fill="none" stroke="grey" stroke-width="2" d="M182.87,-647.7C178.15,-639.64 172.44,-629.89 167.22,-620.98"/>
<polygon fill="grey" stroke="grey" stroke-width="2" points="170.09,-618.96 162.02,-612.1 164.05,-622.5 170.09,-618.96"/>
</g>
<!-- 59&#45;&gt;58 -->
<g id="edge63" class="edge">
<title>59&#45;&gt;58</title>
<path fill="none" stroke="grey" stroke-width="2" d="M193,-719.7C193,-711.98 193,-702.71 193,-694.11"/>
<polygon fill="grey" stroke="grey" stroke-width="2" points="196.5,-694.1 193,-684.1 189.5,-694.1 196.5,-694.1"/>
</g>
<!-- 60&#45;&gt;64 -->
<g id="edge96" class="edge">
<title>60&#45;&gt;64</title>
<path fill="none" stroke="grey" stroke-width="2" d="M228.41,-431.95C227.53,-405.3 226,-352.12 226,-307 226,-307 226,-307 226,-161 226,-120.03 218.44,-98.12 250,-72 301.6,-29.31 778.21,-20.88 916.53,-19.33"/>
<polygon fill="grey" stroke="grey" stroke-width="2" points="916.68,-22.83 926.64,-19.22 916.61,-15.83 916.68,-22.83"/>
</g>
<!-- 61 -->
<g id="node62" class="node">
<title>61</title>
<path fill="none" stroke="#d8d356" stroke-width="2" stroke-dasharray="5,2" d="M277,-540C277,-540 189,-540 189,-540 183,-540 177,-534 177,-528 177,-528 177,-516 177,-516 177,-510 183,-504 189,-504 189,-504 277,-504 277,-504 283,-504 289,-510 289,-516 289,-516 289,-528 289,-528 289,-534 283,-540 277,-540"/>
<text text-anchor="middle" x="233" y="-519.5" font-family="sans" font-size="10.00">locations_manually</text>
</g>
<!-- 61&#45;&gt;60 -->
<g id="edge66" class="edge">
<title>61&#45;&gt;60</title>
<path fill="none" stroke="grey" stroke-width="2" d="M232.01,-503.7C231.57,-495.98 231.04,-486.71 230.55,-478.11"/>
<polygon fill="grey" stroke="grey" stroke-width="2" points="234.04,-477.89 229.98,-468.1 227.05,-478.29 234.04,-477.89"/>
</g>
<!-- 62 -->
<g id="node63" class="node">
<title>62</title>
<path fill="none" stroke="#566bd8" stroke-width="2" stroke-dasharray="5,2" d="M314.5,-612C314.5,-612 277.5,-612 277.5,-612 271.5,-612 265.5,-606 265.5,-600 265.5,-600 265.5,-588 265.5,-588 265.5,-582 271.5,-576 277.5,-576 277.5,-576 314.5,-576 314.5,-576 320.5,-576 326.5,-582 326.5,-588 326.5,-588 326.5,-600 326.5,-600 326.5,-606 320.5,-612 314.5,-612"/>
<text text-anchor="middle" x="296" y="-591.5" font-family="sans" font-size="10.00">locations</text>
</g>
<!-- 62&#45;&gt;60 -->
<g id="edge68" class="edge">
<title>62&#45;&gt;60</title>
<path fill="none" stroke="grey" stroke-width="2" d="M300.85,-575.93C305.18,-557.23 309.27,-526.87 298,-504 292.04,-491.91 281.85,-481.8 271.1,-473.77"/>
<polygon fill="grey" stroke="grey" stroke-width="2" points="273.05,-470.86 262.84,-468.04 269.06,-476.61 273.05,-470.86"/>
</g>
<!-- 62&#45;&gt;61 -->
<g id="edge69" class="edge">
<title>62&#45;&gt;61</title>
<path fill="none" stroke="grey" stroke-width="2" d="M280.43,-575.7C272.8,-567.22 263.48,-556.86 255.12,-547.58"/>
<polygon fill="grey" stroke="grey" stroke-width="2" points="257.69,-545.2 248.39,-540.1 252.48,-549.88 257.69,-545.2"/>
</g>
<!-- 63&#45;&gt;17 -->
<g id="edge23" class="edge">
<title>63&#45;&gt;17</title>
<path fill="none" stroke="grey" stroke-width="2" d="M339.11,-1093.45C416.22,-1084.72 563,-1054.97 563,-955 563,-955 563,-955 563,-881 563,-840.55 564.41,-826.92 544,-792 537.42,-780.73 527.59,-770.6 517.79,-762.29"/>
<polygon fill="grey" stroke="grey" stroke-width="2" points="519.98,-759.56 509.99,-756.02 515.59,-765.01 519.98,-759.56"/>
</g>
<!-- 63&#45;&gt;20 -->
<g id="edge26" class="edge">
<title>63&#45;&gt;20</title>
<path fill="none" stroke="grey" stroke-width="2" d="M315,-1079.7C326.21,-1070.88 340,-1060.03 352.15,-1050.47"/>
<polygon fill="grey" stroke="grey" stroke-width="2" points="354.56,-1053.04 360.25,-1044.1 350.23,-1047.54 354.56,-1053.04"/>
</g>
<!-- 63&#45;&gt;53 -->
<g id="edge57" class="edge">
<title>63&#45;&gt;53</title>
<path fill="none" stroke="grey" stroke-width="2" d="M289.16,-1079.61C283.6,-1052.94 274,-1000.27 274,-955 274,-955 274,-955 274,-737 274,-696.46 278.74,-680.12 254,-648 241.03,-631.16 221.2,-619.16 202.46,-610.89"/>
<polygon fill="grey" stroke="grey" stroke-width="2" points="203.67,-607.6 193.09,-607.01 200.99,-614.07 203.67,-607.6"/>
</g>
<!-- 63&#45;&gt;55 -->
<g id="edge60" class="edge">
<title>63&#45;&gt;55</title>
<path fill="none" stroke="grey" stroke-width="2" d="M246.92,-1091.95C190.78,-1084.77 100.84,-1069.54 80,-1044 49.65,-1006.79 59.27,-980.63 77,-936 81.29,-925.2 88.94,-915.32 96.99,-907.1"/>
<polygon fill="grey" stroke="grey" stroke-width="2" points="99.58,-909.47 104.4,-900.04 94.75,-904.4 99.58,-909.47"/>
</g>
<!-- 63&#45;&gt;57 -->
<g id="edge62" class="edge">
<title>63&#45;&gt;57</title>
<path fill="none" stroke="grey" stroke-width="2" d="M257.53,-1079.88C237.88,-1070.39 213.28,-1058.51 192.37,-1048.42"/>
<polygon fill="grey" stroke="grey" stroke-width="2" points="193.88,-1045.26 183.36,-1044.07 190.84,-1051.57 193.88,-1045.26"/>
</g>
<!-- 63&#45;&gt;59 -->
<g id="edge65" class="edge">
<title>63&#45;&gt;59</title>
<path fill="none" stroke="grey" stroke-width="2" d="M280.33,-1079.57C273.53,-1069.56 265.45,-1056.52 260,-1044 243.66,-1006.43 236,-995.97 236,-955 236,-955 236,-955 236,-881 236,-839.29 218.8,-793.54 206.16,-765.54"/>
<polygon fill="grey" stroke="grey" stroke-width="2" points="209.3,-764.01 201.91,-756.42 202.95,-766.96 209.3,-764.01"/>
</g>
<!-- 63&#45;&gt;62 -->
<g id="edge70" class="edge">
<title>63&#45;&gt;62</title>
<path fill="none" stroke="grey" stroke-width="2" d="M296.84,-1079.61C302.4,-1052.94 312,-1000.27 312,-955 312,-955 312,-955 312,-737 312,-696.96 305.64,-650.97 300.94,-622.45"/>
<polygon fill="grey" stroke="grey" stroke-width="2" points="304.36,-621.69 299.24,-612.42 297.46,-622.86 304.36,-621.69"/>
</g>
<!-- 65&#45;&gt;28 -->
<g id="edge35" class="edge">
<title>65&#45;&gt;28</title>
<path fill="none" stroke="grey" stroke-width="2" d="M647.3,-287.7C655.86,-279.14 666.34,-268.66 675.7,-259.3"/>
<polygon fill="grey" stroke="grey" stroke-width="2" points="678.3,-261.65 682.9,-252.1 673.35,-256.7 678.3,-261.65"/>
</g>
<!-- 65&#45;&gt;33 -->
<g id="edge39" class="edge">
<title>65&#45;&gt;33</title>
<path fill="none" stroke="grey" stroke-width="2" d="M630,-287.87C630,-263.67 630,-219.21 630,-190.39"/>
<polygon fill="grey" stroke="grey" stroke-width="2" points="633.5,-190.19 630,-180.19 626.5,-190.19 633.5,-190.19"/>
</g>
<!-- 66&#45;&gt;64 -->
<g id="edge97" class="edge">
<title>66&#45;&gt;64</title>
<path fill="none" stroke="grey" stroke-width="2" d="M1459.65,-431.86C1467.83,-371.95 1486.16,-170.22 1380,-72 1323.9,-20.1 1084.26,-17.34 991.18,-18.3"/>
<polygon fill="grey" stroke="grey" stroke-width="2" points="991.04,-14.8 981.09,-18.42 991.13,-21.8 991.04,-14.8"/>
</g>
<!-- 67&#45;&gt;40 -->
<g id="edge44" class="edge">
<title>67&#45;&gt;40</title>
<path fill="none" stroke="grey" stroke-width="2" d="M672.2,-504.68C702.22,-494.72 740.84,-481.91 772.82,-471.3"/>
<polygon fill="grey" stroke="grey" stroke-width="2" points="774.12,-474.55 782.51,-468.08 771.92,-467.91 774.12,-474.55"/>
</g>
<!-- 67&#45;&gt;64 -->
<g id="edge98" class="edge">
<title>67&#45;&gt;64</title>
<path fill="none" stroke="grey" stroke-width="2" d="M609.64,-503.72C591.15,-478.03 560,-427.55 560,-379 560,-379 560,-379 560,-161 560,-112.02 583.24,-97.6 625,-72 673.47,-42.3 841.38,-26.96 916.81,-21.44"/>
<polygon fill="grey" stroke="grey" stroke-width="2" points="917.09,-24.93 926.81,-20.73 916.59,-17.95 917.09,-24.93"/>
</g>
<!-- 68&#45;&gt;64 -->
<g id="edge99" class="edge">
<title>68&#45;&gt;64</title>
<path fill="none" stroke="grey" stroke-width="2" d="M1159.7,-75.49C1156.79,-74.24 1153.85,-73.05 1151,-72 1096.56,-52.01 1031.17,-35.91 991.1,-26.9"/>
<polygon fill="grey" stroke="grey" stroke-width="2" points="991.76,-23.46 981.24,-24.71 990.24,-30.29 991.76,-23.46"/>
</g>
<!-- 69&#45;&gt;46 -->
<g id="edge49" class="edge">
<title>69&#45;&gt;46</title>
<path fill="none" stroke="grey" stroke-width="2" d="M1311.25,-143.7C1311.36,-135.98 1311.49,-126.71 1311.61,-118.11"/>
<polygon fill="grey" stroke="grey" stroke-width="2" points="1315.11,-118.15 1311.76,-108.1 1308.11,-118.05 1315.11,-118.15"/>
</g>
<!-- 69&#45;&gt;64 -->
<g id="edge100" class="edge">
<title>69&#45;&gt;64</title>
<path fill="none" stroke="grey" stroke-width="2" d="M1332.71,-143.97C1354.27,-125.04 1381.51,-94.21 1362,-72 1337.66,-44.3 1087.09,-26.8 991.12,-21.07"/>
<polygon fill="grey" stroke="grey" stroke-width="2" points="991.19,-17.57 981,-20.48 990.78,-24.56 991.19,-17.57"/>
</g>
<!-- 70&#45;&gt;44 -->
<g id="edge47" class="edge">
<title>70&#45;&gt;44</title>
<path fill="none" stroke="grey" stroke-width="2" d="M1376.78,-503.7C1375.78,-495.98 1374.59,-486.71 1373.49,-478.11"/>
<polygon fill="grey" stroke="grey" stroke-width="2" points="1376.95,-477.58 1372.2,-468.1 1370,-478.47 1376.95,-477.58"/>
</g>
</g>
</svg>
