<?xml version="1.0" encoding="UTF-8" standalone="no"?>
<!DOCTYPE svg PUBLIC "-//W3C//DTD SVG 1.1//EN"
 "http://www.w3.org/Graphics/SVG/1.1/DTD/svg11.dtd">
<!-- Generated by graphviz version 2.50.0 (0)
 -->
<!-- Title: snakemake_dag Pages: 1 -->
<svg width="684pt" height="1340pt"
 viewBox="0.00 0.00 684.00 1340.00" xmlns="http://www.w3.org/2000/svg" xmlns:xlink="http://www.w3.org/1999/xlink">
<g id="graph0" class="graph" transform="scale(1 1) rotate(0) translate(4 1336)">
<title>snakemake_dag</title>
<polygon fill="white" stroke="transparent" points="-4,4 -4,-1336 680,-1336 680,4 -4,4"/>
<!-- 0 -->
<g id="node1" class="node">
<title>0</title>
<path fill="none" stroke="#567bd8" stroke-width="2" d="M379,-36C379,-36 349,-36 349,-36 343,-36 337,-30 337,-24 337,-24 337,-12 337,-12 337,-6 343,0 349,0 349,0 379,0 379,0 385,0 391,-6 391,-12 391,-12 391,-24 391,-24 391,-30 385,-36 379,-36"/>
<text text-anchor="middle" x="364" y="-15.5" font-family="sans" font-size="10.00">all</text>
</g>
<!-- 1 -->
<g id="node2" class="node">
<title>1</title>
<path fill="none" stroke="#88d856" stroke-width="2" d="M340.5,-108C340.5,-108 255.5,-108 255.5,-108 249.5,-108 243.5,-102 243.5,-96 243.5,-96 243.5,-84 243.5,-84 243.5,-78 249.5,-72 255.5,-72 255.5,-72 340.5,-72 340.5,-72 346.5,-72 352.5,-78 352.5,-84 352.5,-84 352.5,-96 352.5,-96 352.5,-102 346.5,-108 340.5,-108"/>
<text text-anchor="middle" x="298" y="-87.5" font-family="sans" font-size="10.00">dstream_summary</text>
</g>
<!-- 1&#45;&gt;0 -->
<g id="edge4" class="edge">
<title>1&#45;&gt;0</title>
<path fill="none" stroke="grey" stroke-width="2" d="M314.31,-71.7C322.31,-63.22 332.07,-52.86 340.82,-43.58"/>
<polygon fill="grey" stroke="grey" stroke-width="2" points="343.56,-45.78 347.87,-36.1 338.47,-40.98 343.56,-45.78"/>
</g>
<!-- 2 -->
<g id="node3" class="node">
<title>2</title>
<path fill="none" stroke="#56c1d8" stroke-width="2" d="M455.5,-252C455.5,-252 376.5,-252 376.5,-252 370.5,-252 364.5,-246 364.5,-240 364.5,-240 364.5,-228 364.5,-228 364.5,-222 370.5,-216 376.5,-216 376.5,-216 455.5,-216 455.5,-216 461.5,-216 467.5,-222 467.5,-228 467.5,-228 467.5,-240 467.5,-240 467.5,-246 461.5,-252 455.5,-252"/>
<text text-anchor="middle" x="416" y="-231.5" font-family="sans" font-size="10.00">process_infotable</text>
</g>
<!-- 2&#45;&gt;1 -->
<g id="edge5" class="edge">
<title>2&#45;&gt;1</title>
<path fill="none" stroke="grey" stroke-width="2" d="M390.3,-215.8C377.24,-206.25 361.71,-193.58 350,-180 333.58,-160.96 319.52,-136.01 310.18,-117.37"/>
<polygon fill="grey" stroke="grey" stroke-width="2" points="313.26,-115.72 305.73,-108.26 306.97,-118.79 313.26,-115.72"/>
</g>
<!-- 35 -->
<g id="node36" class="node">
<title>35</title>
<path fill="none" stroke="#56d8b9" stroke-width="2" d="M461,-180C461,-180 371,-180 371,-180 365,-180 359,-174 359,-168 359,-168 359,-156 359,-156 359,-150 365,-144 371,-144 371,-144 461,-144 461,-144 467,-144 473,-150 473,-156 473,-156 473,-168 473,-168 473,-174 467,-180 461,-180"/>
<text text-anchor="middle" x="416" y="-159.5" font-family="sans" font-size="10.00">dstream_krona_xml</text>
</g>
<!-- 2&#45;&gt;35 -->
<g id="edge47" class="edge">
<title>2&#45;&gt;35</title>
<path fill="none" stroke="grey" stroke-width="2" d="M416,-215.7C416,-207.98 416,-198.71 416,-190.11"/>
<polygon fill="grey" stroke="grey" stroke-width="2" points="419.5,-190.1 416,-180.1 412.5,-190.1 419.5,-190.1"/>
</g>
<!-- 38 -->
<g id="node39" class="node">
<title>38</title>
<path fill="none" stroke="#56a9d8" stroke-width="2" d="M584.5,-180C584.5,-180 503.5,-180 503.5,-180 497.5,-180 491.5,-174 491.5,-168 491.5,-168 491.5,-156 491.5,-156 491.5,-150 497.5,-144 503.5,-144 503.5,-144 584.5,-144 584.5,-144 590.5,-144 596.5,-150 596.5,-156 596.5,-156 596.5,-168 596.5,-168 596.5,-174 590.5,-180 584.5,-180"/>
<text text-anchor="middle" x="544" y="-159.5" font-family="sans" font-size="10.00">dstream_compare</text>
</g>
<!-- 2&#45;&gt;38 -->
<g id="edge50" class="edge">
<title>2&#45;&gt;38</title>
<path fill="none" stroke="grey" stroke-width="2" d="M447.31,-215.88C464.2,-206.64 485.25,-195.13 503.38,-185.21"/>
<polygon fill="grey" stroke="grey" stroke-width="2" points="505.47,-188.06 512.57,-180.19 502.11,-181.92 505.47,-188.06"/>
</g>
<!-- 3 -->
<g id="node4" class="node">
<title>3</title>
<path fill="none" stroke="#b6d856" stroke-width="2" d="M303,-396C303,-396 191,-396 191,-396 185,-396 179,-390 179,-384 179,-384 179,-372 179,-372 179,-366 185,-360 191,-360 191,-360 303,-360 303,-360 309,-360 315,-366 315,-372 315,-372 315,-384 315,-384 315,-390 309,-396 303,-396"/>
<text text-anchor="middle" x="247" y="-375.5" font-family="sans" font-size="10.00">process_parse_locations</text>
</g>
<!-- 3&#45;&gt;2 -->
<g id="edge10" class="edge">
<title>3&#45;&gt;2</title>
<path fill="none" stroke="grey" stroke-width="2" d="M192.98,-359.96C176.23,-351.85 159.64,-340.26 150,-324 141.84,-310.24 139.85,-300.37 150,-288 175.34,-257.12 283.92,-243.89 354.28,-238.48"/>
<polygon fill="grey" stroke="grey" stroke-width="2" points="354.65,-241.96 364.37,-237.74 354.14,-234.98 354.65,-241.96"/>
</g>
<!-- 23 -->
<g id="node24" class="node">
<title>23</title>
<path fill="none" stroke="#56d0d8" stroke-width="2" d="M342.5,-324C342.5,-324 171.5,-324 171.5,-324 165.5,-324 159.5,-318 159.5,-312 159.5,-312 159.5,-300 159.5,-300 159.5,-294 165.5,-288 171.5,-288 171.5,-288 342.5,-288 342.5,-288 348.5,-288 354.5,-294 354.5,-300 354.5,-300 354.5,-312 354.5,-312 354.5,-318 348.5,-324 342.5,-324"/>
<text text-anchor="middle" x="257" y="-303.5" font-family="sans" font-size="10.00">process_manually_inspect_locations</text>
</g>
<!-- 3&#45;&gt;23 -->
<g id="edge34" class="edge">
<title>3&#45;&gt;23</title>
<path fill="none" stroke="grey" stroke-width="2" d="M249.47,-359.7C250.57,-351.98 251.9,-342.71 253.13,-334.11"/>
<polygon fill="grey" stroke="grey" stroke-width="2" points="256.61,-334.5 254.56,-324.1 249.68,-333.51 256.61,-334.5"/>
</g>
<!-- 4 -->
<g id="node5" class="node">
<title>4</title>
<path fill="none" stroke="#d6d856" stroke-width="2" d="M210,-468C210,-468 116,-468 116,-468 110,-468 104,-462 104,-456 104,-456 104,-444 104,-444 104,-438 110,-432 116,-432 116,-432 210,-432 210,-432 216,-432 222,-438 222,-444 222,-444 222,-456 222,-456 222,-462 216,-468 210,-468"/>
<text text-anchor="middle" x="163" y="-447.5" font-family="sans" font-size="10.00">process_disease_ont</text>
</g>
<!-- 4&#45;&gt;3 -->
<g id="edge11" class="edge">
<title>4&#45;&gt;3</title>
<path fill="none" stroke="grey" stroke-width="2" d="M183.76,-431.7C194.24,-422.97 207.11,-412.24 218.5,-402.75"/>
<polygon fill="grey" stroke="grey" stroke-width="2" points="221.03,-405.19 226.47,-396.1 216.55,-399.82 221.03,-405.19"/>
</g>
<!-- 5 -->
<g id="node6" class="node">
<title>5</title>
<path fill="none" stroke="#d89c56" stroke-width="2" d="M96,-540C96,-540 12,-540 12,-540 6,-540 0,-534 0,-528 0,-528 0,-516 0,-516 0,-510 6,-504 12,-504 12,-504 96,-504 96,-504 102,-504 108,-510 108,-516 108,-516 108,-528 108,-528 108,-534 102,-540 96,-540"/>
<text text-anchor="middle" x="54" y="-519.5" font-family="sans" font-size="10.00">process_infer_host</text>
</g>
<!-- 5&#45;&gt;4 -->
<g id="edge12" class="edge">
<title>5&#45;&gt;4</title>
<path fill="none" stroke="grey" stroke-width="2" d="M80.66,-503.88C94.78,-494.81 112.31,-483.55 127.56,-473.76"/>
<polygon fill="grey" stroke="grey" stroke-width="2" points="129.71,-476.54 136.23,-468.19 125.93,-470.65 129.71,-476.54"/>
</g>
<!-- 6 -->
<g id="node7" class="node">
<title>6</title>
<path fill="none" stroke="#56d87b" stroke-width="2" d="M213.5,-756C213.5,-756 114.5,-756 114.5,-756 108.5,-756 102.5,-750 102.5,-744 102.5,-744 102.5,-732 102.5,-732 102.5,-726 108.5,-720 114.5,-720 114.5,-720 213.5,-720 213.5,-720 219.5,-720 225.5,-726 225.5,-732 225.5,-732 225.5,-744 225.5,-744 225.5,-750 219.5,-756 213.5,-756"/>
<text text-anchor="middle" x="164" y="-735.5" font-family="sans" font-size="10.00">process_calculate_GC</text>
</g>
<!-- 6&#45;&gt;5 -->
<g id="edge14" class="edge">
<title>6&#45;&gt;5</title>
<path fill="none" stroke="grey" stroke-width="2" d="M116.88,-719.95C100.4,-711.63 83.43,-699.9 73,-684 46.4,-643.44 47,-584.52 50.24,-550.34"/>
<polygon fill="grey" stroke="grey" stroke-width="2" points="53.74,-550.49 51.35,-540.17 46.79,-549.73 53.74,-550.49"/>
</g>
<!-- 21 -->
<g id="node22" class="node">
<title>21</title>
<path fill="none" stroke="#d87d56" stroke-width="2" d="M234,-684C234,-684 94,-684 94,-684 88,-684 82,-678 82,-672 82,-672 82,-660 82,-660 82,-654 88,-648 94,-648 94,-648 234,-648 234,-648 240,-648 246,-654 246,-660 246,-660 246,-672 246,-672 246,-678 240,-684 234,-684"/>
<text text-anchor="middle" x="164" y="-663.5" font-family="sans" font-size="10.00">process_create_host_mapping</text>
</g>
<!-- 6&#45;&gt;21 -->
<g id="edge33" class="edge">
<title>6&#45;&gt;21</title>
<path fill="none" stroke="grey" stroke-width="2" d="M164,-719.7C164,-711.98 164,-702.71 164,-694.11"/>
<polygon fill="grey" stroke="grey" stroke-width="2" points="167.5,-694.1 164,-684.1 160.5,-694.1 167.5,-694.1"/>
</g>
<!-- 7 -->
<g id="node8" class="node">
<title>7</title>
<path fill="none" stroke="#56d882" stroke-width="2" d="M348.5,-828C348.5,-828 287.5,-828 287.5,-828 281.5,-828 275.5,-822 275.5,-816 275.5,-816 275.5,-804 275.5,-804 275.5,-798 281.5,-792 287.5,-792 287.5,-792 348.5,-792 348.5,-792 354.5,-792 360.5,-798 360.5,-804 360.5,-804 360.5,-816 360.5,-816 360.5,-822 354.5,-828 348.5,-828"/>
<text text-anchor="middle" x="318" y="-807.5" font-family="sans" font-size="10.00">filter_artifacts</text>
</g>
<!-- 7&#45;&gt;6 -->
<g id="edge16" class="edge">
<title>7&#45;&gt;6</title>
<path fill="none" stroke="grey" stroke-width="2" d="M280.33,-791.88C259.37,-782.35 233.1,-770.41 210.82,-760.28"/>
<polygon fill="grey" stroke="grey" stroke-width="2" points="212.1,-757.02 201.55,-756.07 209.21,-763.39 212.1,-757.02"/>
</g>
<!-- 26 -->
<g id="node27" class="node">
<title>26</title>
<path fill="none" stroke="#5673d8" stroke-width="2" d="M351.5,-468C351.5,-468 252.5,-468 252.5,-468 246.5,-468 240.5,-462 240.5,-456 240.5,-456 240.5,-444 240.5,-444 240.5,-438 246.5,-432 252.5,-432 252.5,-432 351.5,-432 351.5,-432 357.5,-432 363.5,-438 363.5,-444 363.5,-444 363.5,-456 363.5,-456 363.5,-462 357.5,-468 351.5,-468"/>
<text text-anchor="middle" x="302" y="-447.5" font-family="sans" font-size="10.00">process_mash_sketch</text>
</g>
<!-- 7&#45;&gt;26 -->
<g id="edge37" class="edge">
<title>7&#45;&gt;26</title>
<path fill="none" stroke="grey" stroke-width="2" d="M310.31,-791.91C299.21,-765.62 280,-713.45 280,-667 280,-667 280,-667 280,-593 280,-552.74 288.74,-506.81 295.21,-478.36"/>
<polygon fill="grey" stroke="grey" stroke-width="2" points="298.68,-478.89 297.55,-468.35 291.86,-477.29 298.68,-478.89"/>
</g>
<!-- 28 -->
<g id="node29" class="node">
<title>28</title>
<path fill="none" stroke="#568ad8" stroke-width="2" d="M604.5,-756C604.5,-756 529.5,-756 529.5,-756 523.5,-756 517.5,-750 517.5,-744 517.5,-744 517.5,-732 517.5,-732 517.5,-726 523.5,-720 529.5,-720 529.5,-720 604.5,-720 604.5,-720 610.5,-720 616.5,-726 616.5,-732 616.5,-732 616.5,-744 616.5,-744 616.5,-750 610.5,-756 604.5,-756"/>
<text text-anchor="middle" x="567" y="-735.5" font-family="sans" font-size="10.00">process_abricate</text>
</g>
<!-- 7&#45;&gt;28 -->
<g id="edge40" class="edge">
<title>7&#45;&gt;28</title>
<path fill="none" stroke="grey" stroke-width="2" d="M360.52,-797.05C401.03,-785.66 462.37,-768.41 507.68,-755.68"/>
<polygon fill="grey" stroke="grey" stroke-width="2" points="508.69,-759.03 517.37,-752.95 506.8,-752.29 508.69,-759.03"/>
</g>
<!-- 31 -->
<g id="node32" class="node">
<title>31</title>
<path fill="none" stroke="#d8cb56" stroke-width="2" d="M480.5,-612C480.5,-612 417.5,-612 417.5,-612 411.5,-612 405.5,-606 405.5,-600 405.5,-600 405.5,-588 405.5,-588 405.5,-582 411.5,-576 417.5,-576 417.5,-576 480.5,-576 480.5,-576 486.5,-576 492.5,-582 492.5,-588 492.5,-588 492.5,-600 492.5,-600 492.5,-606 486.5,-612 480.5,-612"/>
<text text-anchor="middle" x="449" y="-591.5" font-family="sans" font-size="10.00">process_pmlst</text>
</g>
<!-- 7&#45;&gt;31 -->
<g id="edge44" class="edge">
<title>7&#45;&gt;31</title>
<path fill="none" stroke="grey" stroke-width="2" d="M315.02,-791.82C310.52,-760.15 305.55,-691.77 337,-648 351.05,-628.45 374.23,-615.86 395.86,-607.89"/>
<polygon fill="grey" stroke="grey" stroke-width="2" points="397.01,-611.19 405.33,-604.64 394.74,-604.57 397.01,-611.19"/>
</g>
<!-- 8 -->
<g id="node9" class="node">
<title>8</title>
<path fill="none" stroke="#5663d8" stroke-width="2" d="M341,-900C341,-900 295,-900 295,-900 289,-900 283,-894 283,-888 283,-888 283,-876 283,-876 283,-870 289,-864 295,-864 295,-864 341,-864 341,-864 347,-864 353,-870 353,-876 353,-876 353,-888 353,-888 353,-894 347,-900 341,-900"/>
<text text-anchor="middle" x="318" y="-879.5" font-family="sans" font-size="10.00">filter_rmlst</text>
</g>
<!-- 8&#45;&gt;7 -->
<g id="edge17" class="edge">
<title>8&#45;&gt;7</title>
<path fill="none" stroke="grey" stroke-width="2" d="M318,-863.7C318,-855.98 318,-846.71 318,-838.11"/>
<polygon fill="grey" stroke="grey" stroke-width="2" points="321.5,-838.1 318,-828.1 314.5,-838.1 321.5,-838.1"/>
</g>
<!-- 9 -->
<g id="node10" class="node">
<title>9</title>
<path fill="none" stroke="#56d8d8" stroke-width="2" d="M266,-1044C266,-1044 194,-1044 194,-1044 188,-1044 182,-1038 182,-1032 182,-1032 182,-1020 182,-1020 182,-1014 188,-1008 194,-1008 194,-1008 266,-1008 266,-1008 272,-1008 278,-1014 278,-1020 278,-1020 278,-1032 278,-1032 278,-1038 272,-1044 266,-1044"/>
<text text-anchor="middle" x="230" y="-1023.5" font-family="sans" font-size="10.00">filter_sequences</text>
</g>
<!-- 9&#45;&gt;8 -->
<g id="edge20" class="edge">
<title>9&#45;&gt;8</title>
<path fill="none" stroke="grey" stroke-width="2" d="M230.2,-1007.96C231.17,-989.02 235,-958.18 249,-936 256.39,-924.29 267.33,-914.18 278.33,-906.01"/>
<polygon fill="grey" stroke="grey" stroke-width="2" points="280.52,-908.76 286.7,-900.15 276.5,-903.02 280.52,-908.76"/>
</g>
<!-- 14 -->
<g id="node15" class="node">
<title>14</title>
<path fill="none" stroke="#d8c356" stroke-width="2" d="M366,-972C366,-972 270,-972 270,-972 264,-972 258,-966 258,-960 258,-960 258,-948 258,-948 258,-942 264,-936 270,-936 270,-936 366,-936 366,-936 372,-936 378,-942 378,-948 378,-948 378,-960 378,-960 378,-966 372,-972 366,-972"/>
<text text-anchor="middle" x="318" y="-951.5" font-family="sans" font-size="10.00">process_rmlst_blastn</text>
</g>
<!-- 9&#45;&gt;14 -->
<g id="edge28" class="edge">
<title>9&#45;&gt;14</title>
<path fill="none" stroke="grey" stroke-width="2" d="M251.75,-1007.7C262.84,-998.88 276.47,-988.03 288.49,-978.47"/>
<polygon fill="grey" stroke="grey" stroke-width="2" points="290.85,-981.07 296.5,-972.1 286.49,-975.59 290.85,-981.07"/>
</g>
<!-- 10 -->
<g id="node11" class="node">
<title>10</title>
<path fill="none" stroke="#56d892" stroke-width="2" d="M260.5,-1116C260.5,-1116 199.5,-1116 199.5,-1116 193.5,-1116 187.5,-1110 187.5,-1104 187.5,-1104 187.5,-1092 187.5,-1092 187.5,-1086 193.5,-1080 199.5,-1080 199.5,-1080 260.5,-1080 260.5,-1080 266.5,-1080 272.5,-1086 272.5,-1092 272.5,-1092 272.5,-1104 272.5,-1104 272.5,-1110 266.5,-1116 260.5,-1116"/>
<text text-anchor="middle" x="230" y="-1095.5" font-family="sans" font-size="10.00">retrieve_fasta</text>
</g>
<!-- 10&#45;&gt;9 -->
<g id="edge21" class="edge">
<title>10&#45;&gt;9</title>
<path fill="none" stroke="grey" stroke-width="2" d="M230,-1079.7C230,-1071.98 230,-1062.71 230,-1054.11"/>
<polygon fill="grey" stroke="grey" stroke-width="2" points="233.5,-1054.1 230,-1044.1 226.5,-1054.1 233.5,-1054.1"/>
</g>
<!-- 11 -->
<g id="node12" class="node">
<title>11</title>
<path fill="none" stroke="#61d856" stroke-width="2" d="M335,-1188C335,-1188 267,-1188 267,-1188 261,-1188 255,-1182 255,-1176 255,-1176 255,-1164 255,-1164 255,-1158 261,-1152 267,-1152 267,-1152 335,-1152 335,-1152 341,-1152 347,-1158 347,-1164 347,-1164 347,-1176 347,-1176 347,-1182 341,-1188 335,-1188"/>
<text text-anchor="middle" x="301" y="-1167.5" font-family="sans" font-size="10.00">filter_metadata</text>
</g>
<!-- 11&#45;&gt;9 -->
<g id="edge22" class="edge">
<title>11&#45;&gt;9</title>
<path fill="none" stroke="grey" stroke-width="2" d="M299.91,-1151.98C298.11,-1133.33 293.38,-1103.01 281,-1080 275.29,-1069.39 266.86,-1059.4 258.49,-1051.02"/>
<polygon fill="grey" stroke="grey" stroke-width="2" points="260.88,-1048.45 251.22,-1044.09 256.05,-1053.52 260.88,-1048.45"/>
</g>
<!-- 11&#45;&gt;10 -->
<g id="edge23" class="edge">
<title>11&#45;&gt;10</title>
<path fill="none" stroke="grey" stroke-width="2" d="M283.45,-1151.7C274.77,-1143.14 264.14,-1132.66 254.65,-1123.3"/>
<polygon fill="grey" stroke="grey" stroke-width="2" points="256.93,-1120.63 247.35,-1116.1 252.01,-1125.62 256.93,-1120.63"/>
</g>
<!-- 12 -->
<g id="node13" class="node">
<title>12</title>
<path fill="none" stroke="#c6d856" stroke-width="2" d="M540.5,-1260C540.5,-1260 435.5,-1260 435.5,-1260 429.5,-1260 423.5,-1254 423.5,-1248 423.5,-1248 423.5,-1236 423.5,-1236 423.5,-1230 429.5,-1224 435.5,-1224 435.5,-1224 540.5,-1224 540.5,-1224 546.5,-1224 552.5,-1230 552.5,-1236 552.5,-1236 552.5,-1248 552.5,-1248 552.5,-1254 546.5,-1260 540.5,-1260"/>
<text text-anchor="middle" x="488" y="-1239.5" font-family="sans" font-size="10.00">retrieve_plasmid_taxid</text>
</g>
<!-- 12&#45;&gt;11 -->
<g id="edge24" class="edge">
<title>12&#45;&gt;11</title>
<path fill="none" stroke="grey" stroke-width="2" d="M442.25,-1223.88C416.24,-1214.14 383.47,-1201.87 356.05,-1191.61"/>
<polygon fill="grey" stroke="grey" stroke-width="2" points="357.19,-1188.3 346.6,-1188.07 354.74,-1194.85 357.19,-1188.3"/>
</g>
<!-- 12&#45;&gt;38 -->
<g id="edge51" class="edge">
<title>12&#45;&gt;38</title>
<path fill="none" stroke="grey" stroke-width="2" d="M546.71,-1223.96C601.87,-1203.92 676,-1164.75 676,-1099 676,-1099 676,-1099 676,-305 676,-251.4 624.93,-209.54 586.32,-185.55"/>
<polygon fill="grey" stroke="grey" stroke-width="2" points="587.68,-182.29 577.31,-180.13 584.07,-188.29 587.68,-182.29"/>
</g>
<!-- 13 -->
<g id="node14" class="node">
<title>13</title>
<path fill="none" stroke="#56b1d8" stroke-width="2" d="M552,-1332C552,-1332 424,-1332 424,-1332 418,-1332 412,-1326 412,-1320 412,-1320 412,-1308 412,-1308 412,-1302 418,-1296 424,-1296 424,-1296 552,-1296 552,-1296 558,-1296 564,-1302 564,-1308 564,-1308 564,-1320 564,-1320 564,-1326 558,-1332 552,-1332"/>
<text text-anchor="middle" x="488" y="-1311.5" font-family="sans" font-size="10.00">retrieve_plasmid_metadata</text>
</g>
<!-- 13&#45;&gt;12 -->
<g id="edge25" class="edge">
<title>13&#45;&gt;12</title>
<path fill="none" stroke="grey" stroke-width="2" d="M488,-1295.7C488,-1287.98 488,-1278.71 488,-1270.11"/>
<polygon fill="grey" stroke="grey" stroke-width="2" points="491.5,-1270.1 488,-1260.1 484.5,-1270.1 491.5,-1270.1"/>
</g>
<!-- 14&#45;&gt;8 -->
<g id="edge19" class="edge">
<title>14&#45;&gt;8</title>
<path fill="none" stroke="grey" stroke-width="2" d="M318,-935.7C318,-927.98 318,-918.71 318,-910.11"/>
<polygon fill="grey" stroke="grey" stroke-width="2" points="321.5,-910.1 318,-900.1 314.5,-910.1 321.5,-910.1"/>
</g>
<!-- 15 -->
<g id="node16" class="node">
<title>15</title>
<path fill="none" stroke="#569ad8" stroke-width="2" d="M443.5,-1116C443.5,-1116 354.5,-1116 354.5,-1116 348.5,-1116 342.5,-1110 342.5,-1104 342.5,-1104 342.5,-1092 342.5,-1092 342.5,-1086 348.5,-1080 354.5,-1080 354.5,-1080 443.5,-1080 443.5,-1080 449.5,-1080 455.5,-1086 455.5,-1092 455.5,-1092 455.5,-1104 455.5,-1104 455.5,-1110 449.5,-1116 443.5,-1116"/>
<text text-anchor="middle" x="399" y="-1095.5" font-family="sans" font-size="10.00">retrieve_rmlst_data</text>
</g>
<!-- 15&#45;&gt;14 -->
<g id="edge26" class="edge">
<title>15&#45;&gt;14</title>
<path fill="none" stroke="grey" stroke-width="2" d="M362.97,-1079.95C348.68,-1071.27 333.62,-1059.28 325,-1044 314.49,-1025.38 313.27,-1000.99 314.39,-982.45"/>
<polygon fill="grey" stroke="grey" stroke-width="2" points="317.89,-982.56 315.26,-972.3 310.92,-981.96 317.89,-982.56"/>
</g>
<!-- 16 -->
<g id="node17" class="node">
<title>16</title>
<path fill="none" stroke="#afd856" stroke-width="2" d="M480,-1044C480,-1044 346,-1044 346,-1044 340,-1044 334,-1038 334,-1032 334,-1032 334,-1020 334,-1020 334,-1014 340,-1008 346,-1008 346,-1008 480,-1008 480,-1008 486,-1008 492,-1014 492,-1020 492,-1020 492,-1032 492,-1032 492,-1038 486,-1044 480,-1044"/>
<text text-anchor="middle" x="413" y="-1023.5" font-family="sans" font-size="10.00">process_make_rmlst_blastdb</text>
</g>
<!-- 15&#45;&gt;16 -->
<g id="edge29" class="edge">
<title>15&#45;&gt;16</title>
<path fill="none" stroke="grey" stroke-width="2" d="M402.46,-1079.7C404,-1071.98 405.86,-1062.71 407.58,-1054.11"/>
<polygon fill="grey" stroke="grey" stroke-width="2" points="411.05,-1054.6 409.58,-1044.1 404.19,-1053.22 411.05,-1054.6"/>
</g>
<!-- 16&#45;&gt;14 -->
<g id="edge27" class="edge">
<title>16&#45;&gt;14</title>
<path fill="none" stroke="grey" stroke-width="2" d="M389.52,-1007.7C377.44,-998.8 362.55,-987.82 349.48,-978.2"/>
<polygon fill="grey" stroke="grey" stroke-width="2" points="351.34,-975.22 341.21,-972.1 347.19,-980.85 351.34,-975.22"/>
</g>
<!-- 17 -->
<g id="node18" class="node">
<title>17</title>
<path fill="none" stroke="#78d856" stroke-width="2" d="M601.5,-972C601.5,-972 442.5,-972 442.5,-972 436.5,-972 430.5,-966 430.5,-960 430.5,-960 430.5,-948 430.5,-948 430.5,-942 436.5,-936 442.5,-936 442.5,-936 601.5,-936 601.5,-936 607.5,-936 613.5,-942 613.5,-948 613.5,-948 613.5,-960 613.5,-960 613.5,-966 607.5,-972 601.5,-972"/>
<text text-anchor="middle" x="522" y="-951.5" font-family="sans" font-size="10.00">process_make_nuccoredb_blastdb</text>
</g>
<!-- 17&#45;&gt;8 -->
<g id="edge18" class="edge">
<title>17&#45;&gt;8</title>
<path fill="none" stroke="grey" stroke-width="2" d="M472.36,-935.97C438.9,-924.49 395.14,-909.47 362.76,-898.36"/>
<polygon fill="grey" stroke="grey" stroke-width="2" points="363.69,-894.98 353.1,-895.04 361.42,-901.6 363.69,-894.98"/>
</g>
<!-- 18 -->
<g id="node19" class="node">
<title>18</title>
<path fill="none" stroke="#68d856" stroke-width="2" d="M636,-1044C636,-1044 522,-1044 522,-1044 516,-1044 510,-1038 510,-1032 510,-1032 510,-1020 510,-1020 510,-1014 516,-1008 522,-1008 522,-1008 636,-1008 636,-1008 642,-1008 648,-1014 648,-1020 648,-1020 648,-1032 648,-1032 648,-1038 642,-1044 636,-1044"/>
<text text-anchor="middle" x="579" y="-1023.5" font-family="sans" font-size="10.00">retrieve_nuccoredb_seqs</text>
</g>
<!-- 18&#45;&gt;17 -->
<g id="edge30" class="edge">
<title>18&#45;&gt;17</title>
<path fill="none" stroke="grey" stroke-width="2" d="M564.91,-1007.7C558.08,-999.3 549.74,-989.07 542.24,-979.86"/>
<polygon fill="grey" stroke="grey" stroke-width="2" points="544.96,-977.65 535.93,-972.1 539.53,-982.07 544.96,-977.65"/>
</g>
<!-- 19 -->
<g id="node20" class="node">
<title>19</title>
<path fill="none" stroke="#56d85b" stroke-width="2" d="M632,-1116C632,-1116 526,-1116 526,-1116 520,-1116 514,-1110 514,-1104 514,-1104 514,-1092 514,-1092 514,-1086 520,-1080 526,-1080 526,-1080 632,-1080 632,-1080 638,-1080 644,-1086 644,-1092 644,-1092 644,-1104 644,-1104 644,-1110 638,-1116 632,-1116"/>
<text text-anchor="middle" x="579" y="-1095.5" font-family="sans" font-size="10.00">retrieve_nuccoredb_ids</text>
</g>
<!-- 19&#45;&gt;18 -->
<g id="edge31" class="edge">
<title>19&#45;&gt;18</title>
<path fill="none" stroke="grey" stroke-width="2" d="M579,-1079.7C579,-1071.98 579,-1062.71 579,-1054.11"/>
<polygon fill="grey" stroke="grey" stroke-width="2" points="582.5,-1054.1 579,-1044.1 575.5,-1054.1 582.5,-1054.1"/>
</g>
<!-- 20 -->
<g id="node21" class="node">
<title>20</title>
<path fill="none" stroke="#d88d56" stroke-width="2" d="M240.5,-612C240.5,-612 87.5,-612 87.5,-612 81.5,-612 75.5,-606 75.5,-600 75.5,-600 75.5,-588 75.5,-588 75.5,-582 81.5,-576 87.5,-576 87.5,-576 240.5,-576 240.5,-576 246.5,-576 252.5,-582 252.5,-588 252.5,-588 252.5,-600 252.5,-600 252.5,-606 246.5,-612 240.5,-612"/>
<text text-anchor="middle" x="164" y="-591.5" font-family="sans" font-size="10.00">process_manually_inspect_hosts</text>
</g>
<!-- 20&#45;&gt;5 -->
<g id="edge15" class="edge">
<title>20&#45;&gt;5</title>
<path fill="none" stroke="grey" stroke-width="2" d="M137.09,-575.88C122.84,-566.81 105.15,-555.55 89.76,-545.76"/>
<polygon fill="grey" stroke="grey" stroke-width="2" points="91.33,-542.61 81.01,-540.19 87.57,-548.51 91.33,-542.61"/>
</g>
<!-- 21&#45;&gt;20 -->
<g id="edge32" class="edge">
<title>21&#45;&gt;20</title>
<path fill="none" stroke="grey" stroke-width="2" d="M164,-647.7C164,-639.98 164,-630.71 164,-622.11"/>
<polygon fill="grey" stroke="grey" stroke-width="2" points="167.5,-622.1 164,-612.1 160.5,-622.1 167.5,-622.1"/>
</g>
<!-- 22 -->
<g id="node23" class="node">
<title>22</title>
<path fill="none" stroke="#56d8c9" stroke-width="2" d="M233.5,-540C233.5,-540 138.5,-540 138.5,-540 132.5,-540 126.5,-534 126.5,-528 126.5,-528 126.5,-516 126.5,-516 126.5,-510 132.5,-504 138.5,-504 138.5,-504 233.5,-504 233.5,-504 239.5,-504 245.5,-510 245.5,-516 245.5,-516 245.5,-528 245.5,-528 245.5,-534 239.5,-540 233.5,-540"/>
<text text-anchor="middle" x="186" y="-519.5" font-family="sans" font-size="10.00">retrieve_disease_ont</text>
</g>
<!-- 22&#45;&gt;4 -->
<g id="edge13" class="edge">
<title>22&#45;&gt;4</title>
<path fill="none" stroke="grey" stroke-width="2" d="M180.31,-503.7C177.75,-495.9 174.67,-486.51 171.82,-477.83"/>
<polygon fill="grey" stroke="grey" stroke-width="2" points="175.07,-476.51 168.62,-468.1 168.42,-478.7 175.07,-476.51"/>
</g>
<!-- 23&#45;&gt;2 -->
<g id="edge9" class="edge">
<title>23&#45;&gt;2</title>
<path fill="none" stroke="grey" stroke-width="2" d="M295.9,-287.88C317.63,-278.31 344.9,-266.3 367.96,-256.15"/>
<polygon fill="grey" stroke="grey" stroke-width="2" points="369.49,-259.3 377.23,-252.07 366.67,-252.89 369.49,-259.3"/>
</g>
<!-- 24 -->
<g id="node25" class="node">
<title>24</title>
<path fill="none" stroke="#d85656" stroke-width="2" d="M447.5,-324C447.5,-324 384.5,-324 384.5,-324 378.5,-324 372.5,-318 372.5,-312 372.5,-312 372.5,-300 372.5,-300 372.5,-294 378.5,-288 384.5,-288 384.5,-288 447.5,-288 447.5,-288 453.5,-288 459.5,-294 459.5,-300 459.5,-300 459.5,-312 459.5,-312 459.5,-318 453.5,-324 447.5,-324"/>
<text text-anchor="middle" x="416" y="-303.5" font-family="sans" font-size="10.00">process_umap</text>
</g>
<!-- 24&#45;&gt;2 -->
<g id="edge7" class="edge">
<title>24&#45;&gt;2</title>
<path fill="none" stroke="grey" stroke-width="2" d="M416,-287.7C416,-279.98 416,-270.71 416,-262.11"/>
<polygon fill="grey" stroke="grey" stroke-width="2" points="419.5,-262.1 416,-252.1 412.5,-262.1 419.5,-262.1"/>
</g>
<!-- 25 -->
<g id="node26" class="node">
<title>25</title>
<path fill="none" stroke="#8fd856" stroke-width="2" d="M440,-396C440,-396 354,-396 354,-396 348,-396 342,-390 342,-384 342,-384 342,-372 342,-372 342,-366 348,-360 354,-360 354,-360 440,-360 440,-360 446,-360 452,-366 452,-372 452,-372 452,-384 452,-384 452,-390 446,-396 440,-396"/>
<text text-anchor="middle" x="397" y="-375.5" font-family="sans" font-size="10.00">process_mash_dist</text>
</g>
<!-- 25&#45;&gt;24 -->
<g id="edge35" class="edge">
<title>25&#45;&gt;24</title>
<path fill="none" stroke="grey" stroke-width="2" d="M401.7,-359.7C403.81,-351.9 406.36,-342.51 408.72,-333.83"/>
<polygon fill="grey" stroke="grey" stroke-width="2" points="412.12,-334.67 411.36,-324.1 405.36,-332.84 412.12,-334.67"/>
</g>
<!-- 26&#45;&gt;25 -->
<g id="edge36" class="edge">
<title>26&#45;&gt;25</title>
<path fill="none" stroke="grey" stroke-width="2" d="M325.48,-431.7C337.56,-422.8 352.45,-411.82 365.52,-402.2"/>
<polygon fill="grey" stroke="grey" stroke-width="2" points="367.81,-404.85 373.79,-396.1 363.66,-399.22 367.81,-404.85"/>
</g>
<!-- 37 -->
<g id="node38" class="node">
<title>37</title>
<path fill="none" stroke="#56d86b" stroke-width="2" d="M148.5,-396C148.5,-396 39.5,-396 39.5,-396 33.5,-396 27.5,-390 27.5,-384 27.5,-384 27.5,-372 27.5,-372 27.5,-366 33.5,-360 39.5,-360 39.5,-360 148.5,-360 148.5,-360 154.5,-360 160.5,-366 160.5,-372 160.5,-372 160.5,-384 160.5,-384 160.5,-390 154.5,-396 148.5,-396"/>
<text text-anchor="middle" x="94" y="-375.5" font-family="sans" font-size="10.00">process_mash_dist_sim</text>
</g>
<!-- 26&#45;&gt;37 -->
<g id="edge49" class="edge">
<title>26&#45;&gt;37</title>
<path fill="none" stroke="grey" stroke-width="2" d="M251.38,-431.97C222.19,-422.14 185.31,-409.73 154.58,-399.39"/>
<polygon fill="grey" stroke="grey" stroke-width="2" points="155.44,-395.98 144.84,-396.11 153.2,-402.62 155.44,-395.98"/>
</g>
<!-- 27 -->
<g id="node28" class="node">
<title>27</title>
<path fill="none" stroke="#56d8a2" stroke-width="2" d="M636,-684C636,-684 538,-684 538,-684 532,-684 526,-678 526,-672 526,-672 526,-660 526,-660 526,-654 532,-648 538,-648 538,-648 636,-648 636,-648 642,-648 648,-654 648,-660 648,-660 648,-672 648,-672 648,-678 642,-684 636,-684"/>
<text text-anchor="middle" x="587" y="-663.5" font-family="sans" font-size="10.00">process_join_abricate</text>
</g>
<!-- 27&#45;&gt;2 -->
<g id="edge6" class="edge">
<title>27&#45;&gt;2</title>
<path fill="none" stroke="grey" stroke-width="2" d="M582.55,-647.65C576.12,-621.02 565,-568.4 565,-523 565,-523 565,-523 565,-377 565,-320.62 508.4,-279.8 464.97,-256.77"/>
<polygon fill="grey" stroke="grey" stroke-width="2" points="466.42,-253.58 455.93,-252.13 463.23,-259.81 466.42,-253.58"/>
</g>
<!-- 27&#45;&gt;31 -->
<g id="edge43" class="edge">
<title>27&#45;&gt;31</title>
<path fill="none" stroke="grey" stroke-width="2" d="M553.24,-647.88C534.78,-638.51 511.72,-626.81 491.98,-616.8"/>
<polygon fill="grey" stroke="grey" stroke-width="2" points="493.39,-613.59 482.89,-612.19 490.22,-619.83 493.39,-613.59"/>
</g>
<!-- 28&#45;&gt;27 -->
<g id="edge38" class="edge">
<title>28&#45;&gt;27</title>
<path fill="none" stroke="grey" stroke-width="2" d="M571.94,-719.7C574.17,-711.9 576.85,-702.51 579.33,-693.83"/>
<polygon fill="grey" stroke="grey" stroke-width="2" points="582.73,-694.68 582.11,-684.1 576,-692.76 582.73,-694.68"/>
</g>
<!-- 29 -->
<g id="node30" class="node">
<title>29</title>
<path fill="none" stroke="#56d8a9" stroke-width="2" d="M611,-828C611,-828 523,-828 523,-828 517,-828 511,-822 511,-816 511,-816 511,-804 511,-804 511,-798 517,-792 523,-792 523,-792 611,-792 611,-792 617,-792 623,-798 623,-804 623,-804 623,-816 623,-816 623,-822 617,-828 611,-828"/>
<text text-anchor="middle" x="567" y="-807.5" font-family="sans" font-size="10.00">retrieve_abricatedb</text>
</g>
<!-- 29&#45;&gt;28 -->
<g id="edge39" class="edge">
<title>29&#45;&gt;28</title>
<path fill="none" stroke="grey" stroke-width="2" d="M567,-791.7C567,-783.98 567,-774.71 567,-766.11"/>
<polygon fill="grey" stroke="grey" stroke-width="2" points="570.5,-766.1 567,-756.1 563.5,-766.1 570.5,-766.1"/>
</g>
<!-- 30 -->
<g id="node31" class="node">
<title>30</title>
<path fill="none" stroke="#d8a456" stroke-width="2" d="M621.5,-900C621.5,-900 512.5,-900 512.5,-900 506.5,-900 500.5,-894 500.5,-888 500.5,-888 500.5,-876 500.5,-876 500.5,-870 506.5,-864 512.5,-864 512.5,-864 621.5,-864 621.5,-864 627.5,-864 633.5,-870 633.5,-876 633.5,-876 633.5,-888 633.5,-888 633.5,-894 627.5,-900 621.5,-900"/>
<text text-anchor="middle" x="567" y="-879.5" font-family="sans" font-size="10.00">retrieve_abricate_getdb</text>
</g>
<!-- 30&#45;&gt;29 -->
<g id="edge41" class="edge">
<title>30&#45;&gt;29</title>
<path fill="none" stroke="grey" stroke-width="2" d="M567,-863.7C567,-855.98 567,-846.71 567,-838.11"/>
<polygon fill="grey" stroke="grey" stroke-width="2" points="570.5,-838.1 567,-828.1 563.5,-838.1 570.5,-838.1"/>
</g>
<!-- 31&#45;&gt;2 -->
<g id="edge8" class="edge">
<title>31&#45;&gt;2</title>
<path fill="none" stroke="grey" stroke-width="2" d="M456.89,-575.93C468.29,-549.67 488,-497.53 488,-451 488,-451 488,-451 488,-377 488,-336.46 487.38,-323.61 468,-288 462.18,-277.32 453.59,-267.31 445.06,-258.93"/>
<polygon fill="grey" stroke="grey" stroke-width="2" points="447.34,-256.27 437.65,-252.01 442.57,-261.39 447.34,-256.27"/>
</g>
<!-- 32 -->
<g id="node33" class="node">
<title>32</title>
<path fill="none" stroke="#d86656" stroke-width="2" d="M495.5,-684C495.5,-684 358.5,-684 358.5,-684 352.5,-684 346.5,-678 346.5,-672 346.5,-672 346.5,-660 346.5,-660 346.5,-654 352.5,-648 358.5,-648 358.5,-648 495.5,-648 495.5,-648 501.5,-648 507.5,-654 507.5,-660 507.5,-660 507.5,-672 507.5,-672 507.5,-678 501.5,-684 495.5,-684"/>
<text text-anchor="middle" x="427" y="-663.5" font-family="sans" font-size="10.00">process_make_pmlst_blastdb</text>
</g>
<!-- 32&#45;&gt;31 -->
<g id="edge42" class="edge">
<title>32&#45;&gt;31</title>
<path fill="none" stroke="grey" stroke-width="2" d="M432.44,-647.7C434.89,-639.9 437.84,-630.51 440.57,-621.83"/>
<polygon fill="grey" stroke="grey" stroke-width="2" points="443.96,-622.69 443.62,-612.1 437.29,-620.59 443.96,-622.69"/>
</g>
<!-- 33 -->
<g id="node34" class="node">
<title>33</title>
<path fill="none" stroke="#9fd856" stroke-width="2" d="M472.5,-756C472.5,-756 381.5,-756 381.5,-756 375.5,-756 369.5,-750 369.5,-744 369.5,-744 369.5,-732 369.5,-732 369.5,-726 375.5,-720 381.5,-720 381.5,-720 472.5,-720 472.5,-720 478.5,-720 484.5,-726 484.5,-732 484.5,-732 484.5,-744 484.5,-744 484.5,-750 478.5,-756 472.5,-756"/>
<text text-anchor="middle" x="427" y="-735.5" font-family="sans" font-size="10.00">retrieve_pmlst_data</text>
</g>
<!-- 33&#45;&gt;32 -->
<g id="edge45" class="edge">
<title>33&#45;&gt;32</title>
<path fill="none" stroke="grey" stroke-width="2" d="M427,-719.7C427,-711.98 427,-702.71 427,-694.11"/>
<polygon fill="grey" stroke="grey" stroke-width="2" points="430.5,-694.1 427,-684.1 423.5,-694.1 430.5,-694.1"/>
</g>
<!-- 34 -->
<g id="node35" class="node">
<title>34</title>
<path fill="none" stroke="#d86e56" stroke-width="2" d="M477,-108C477,-108 383,-108 383,-108 377,-108 371,-102 371,-96 371,-96 371,-84 371,-84 371,-78 377,-72 383,-72 383,-72 477,-72 477,-72 483,-72 489,-78 489,-84 489,-84 489,-96 489,-96 489,-102 483,-108 477,-108"/>
<text text-anchor="middle" x="430" y="-87.5" font-family="sans" font-size="10.00">dstream_krona_html</text>
</g>
<!-- 34&#45;&gt;0 -->
<g id="edge1" class="edge">
<title>34&#45;&gt;0</title>
<path fill="none" stroke="grey" stroke-width="2" d="M413.69,-71.7C405.69,-63.22 395.93,-52.86 387.18,-43.58"/>
<polygon fill="grey" stroke="grey" stroke-width="2" points="389.53,-40.98 380.13,-36.1 384.44,-45.78 389.53,-40.98"/>
</g>
<!-- 35&#45;&gt;34 -->
<g id="edge46" class="edge">
<title>35&#45;&gt;34</title>
<path fill="none" stroke="grey" stroke-width="2" d="M419.46,-143.7C421,-135.98 422.86,-126.71 424.58,-118.11"/>
<polygon fill="grey" stroke="grey" stroke-width="2" points="428.05,-118.6 426.58,-108.1 421.19,-117.22 428.05,-118.6"/>
</g>
<!-- 36 -->
<g id="node37" class="node">
<title>36</title>
<path fill="none" stroke="#d8b456" stroke-width="2" d="M217,-252C217,-252 119,-252 119,-252 113,-252 107,-246 107,-240 107,-240 107,-228 107,-228 107,-222 113,-216 119,-216 119,-216 217,-216 217,-216 223,-216 229,-222 229,-228 229,-228 229,-240 229,-240 229,-246 223,-252 217,-252"/>
<text text-anchor="middle" x="168" y="-231.5" font-family="sans" font-size="10.00">dstream_sim_records</text>
</g>
<!-- 36&#45;&gt;0 -->
<g id="edge3" class="edge">
<title>36&#45;&gt;0</title>
<path fill="none" stroke="grey" stroke-width="2" d="M170.62,-215.53C176.35,-183.05 192.95,-112.97 234,-72 259.27,-46.77 298.2,-33.06 326.87,-25.95"/>
<polygon fill="grey" stroke="grey" stroke-width="2" points="327.97,-29.29 336.92,-23.62 326.39,-22.47 327.97,-29.29"/>
</g>
<!-- 37&#45;&gt;36 -->
<g id="edge48" class="edge">
<title>37&#45;&gt;36</title>
<path fill="none" stroke="grey" stroke-width="2" d="M96.06,-359.99C98.87,-341.36 105.11,-311.05 118,-288 123.81,-277.6 132.12,-267.68 140.29,-259.3"/>
<polygon fill="grey" stroke="grey" stroke-width="2" points="142.99,-261.55 147.68,-252.06 138.09,-256.55 142.99,-261.55"/>
</g>
<!-- 38&#45;&gt;0 -->
<g id="edge2" class="edge">
<title>38&#45;&gt;0</title>
<path fill="none" stroke="grey" stroke-width="2" d="M539.23,-143.98C532.87,-124.19 519.8,-91.72 498,-72 470.61,-47.23 430.26,-33.41 401,-26.14"/>
<polygon fill="grey" stroke="grey" stroke-width="2" points="401.69,-22.7 391.15,-23.83 400.09,-29.52 401.69,-22.7"/>
</g>
</g>
</svg>
